<svg width="20" height="20" viewBox="0 0 20 20" fill="none" xmlns="http://www.w3.org/2000/svg">
<path d="M15.7755 4.37024C14.713 3.89108 13.5741 3.53693 12.3832 3.33554C12.3726 3.33351 12.3616 3.33482 12.3518 3.3393C12.342 3.34378 12.3338 3.3512 12.3283 3.36054C12.1825 3.61679 12.02 3.9508 11.9061 4.21469C10.643 4.02597 9.35891 4.02597 8.09582 4.21469C7.96897 3.92224 7.82593 3.63708 7.66736 3.36054C7.66198 3.35109 7.65385 3.3435 7.64405 3.33878C7.63425 3.33407 7.62324 3.33245 7.6125 3.33416C6.42226 3.53554 5.2834 3.8897 4.22024 4.36954C4.21109 4.37338 4.20334 4.37992 4.19801 4.38829C2.03697 7.56528 1.44462 10.6638 1.73559 13.7234C1.7364 13.7309 1.73872 13.7382 1.74242 13.7447C1.74612 13.7513 1.75112 13.7571 1.75711 13.7616C3.01846 14.68 4.42532 15.3795 5.9188 15.831C5.92921 15.8342 5.94034 15.8342 5.95075 15.831C5.96116 15.8278 5.97035 15.8215 5.97713 15.813C6.29851 15.3832 6.58329 14.9272 6.82849 14.4498C6.8319 14.4433 6.83386 14.4361 6.83425 14.4287C6.83463 14.4214 6.83344 14.414 6.83074 14.4072C6.82804 14.4004 6.8239 14.3942 6.8186 14.3891C6.8133 14.3839 6.80696 14.38 6.80002 14.3776C6.35143 14.2087 5.91677 14.0048 5.50006 13.7679C5.49257 13.7636 5.48626 13.7575 5.4817 13.7502C5.47713 13.7429 5.47445 13.7346 5.4739 13.726C5.47335 13.7174 5.47495 13.7088 5.47854 13.7009C5.48214 13.6931 5.48762 13.6863 5.4945 13.6811C5.582 13.6165 5.6695 13.5491 5.75283 13.4818C5.76033 13.4757 5.76937 13.4719 5.77893 13.4706C5.78849 13.4694 5.79821 13.4709 5.807 13.4748C8.534 14.6998 11.4874 14.6998 14.1824 13.4748C14.1913 13.4706 14.2011 13.469 14.2108 13.4701C14.2205 13.4712 14.2297 13.475 14.2373 13.4811C14.3206 13.5491 14.4074 13.6165 14.4956 13.6811C14.5026 13.6862 14.5082 13.6929 14.5119 13.7007C14.5156 13.7084 14.5173 13.717 14.5169 13.7256C14.5165 13.7342 14.5139 13.7426 14.5095 13.7499C14.5051 13.7573 14.4989 13.7635 14.4915 13.7679C14.0762 14.0068 13.6443 14.2088 13.1908 14.3769C13.1838 14.3794 13.1775 14.3834 13.1722 14.3886C13.1669 14.3938 13.1628 14.4 13.1601 14.4069C13.1574 14.4138 13.1562 14.4212 13.1566 14.4286C13.157 14.436 13.1589 14.4432 13.1623 14.4498C13.4123 14.9269 13.6984 15.381 14.013 15.8123C14.0195 15.8211 14.0287 15.8277 14.0391 15.8312C14.0495 15.8347 14.0608 15.8349 14.0713 15.8317C15.5674 15.3815 16.9765 14.6816 18.2393 13.7616C18.2454 13.7573 18.2506 13.7518 18.2544 13.7453C18.2583 13.7388 18.2607 13.7316 18.2615 13.7241C18.6087 10.1867 17.6796 7.11321 15.797 4.38968C15.7924 4.38083 15.7847 4.37393 15.7755 4.37024ZM7.23612 11.8603C6.41531 11.8603 5.73825 11.118 5.73825 10.2076C5.73825 9.29648 6.40212 8.55484 7.23612 8.55484C8.07637 8.55484 8.74719 9.30273 8.73399 10.2076C8.73399 11.1187 8.07012 11.8603 7.23612 11.8603ZM12.7742 11.8603C11.9527 11.8603 11.2763 11.118 11.2763 10.2076C11.2763 9.29648 11.9395 8.55484 12.7742 8.55484C13.6144 8.55484 14.2852 9.30273 14.272 10.2076C14.272 11.1187 13.6151 11.8603 12.7742 11.8603Z" fill="#8A9098"/>
</svg>
