<svg width="20" height="20" viewBox="0 0 20 20" fill="none" xmlns="http://www.w3.org/2000/svg">
<path d="M11.4472 18.2066C12.525 18.0165 13.5547 17.6161 14.4777 17.0281C15.4006 16.4401 16.1987 15.6761 16.8264 14.7796C17.4541 13.8832 17.8991 12.8719 18.136 11.8035C18.3728 10.7351 18.3969 9.63049 18.2069 8.55277C18.0169 7.47505 17.6164 6.4453 17.0284 5.52234C16.4404 4.59938 15.6764 3.80126 14.78 3.17357C13.8835 2.54588 12.8722 2.1009 11.8038 1.86404C10.7354 1.62718 9.63082 1.60307 8.55309 1.79311C7.47537 1.98314 6.44563 2.38358 5.52266 2.97158C4.5997 3.55957 3.80159 4.3236 3.17389 5.22004C2.5462 6.11647 2.10122 7.12777 1.86436 8.19618C1.6275 9.26458 1.6034 10.3692 1.79343 11.4469C1.98346 12.5246 2.38391 13.5544 2.9719 14.4773C3.55989 15.4003 4.32392 16.1984 5.22036 16.8261C6.1168 17.4538 7.12809 17.8988 8.1965 18.1356C9.26491 18.3725 10.3695 18.3966 11.4472 18.2066L11.4472 18.2066Z" stroke="white" stroke-width="2"/>
<path d="M10 10L10 15" stroke="white" stroke-width="2" stroke-linecap="square"/>
<path d="M10 5.8335L10 5.00016" stroke="white" stroke-width="2" stroke-linecap="square"/>
</svg>
