<svg width="20" height="20" viewBox="0 0 20 20" fill="none" xmlns="http://www.w3.org/2000/svg">
<path d="M1.6665 1.6665V18.3332H18.3332V1.6665H1.6665ZM15.5118 5.61598L14.6191 6.47328C14.5808 6.50138 14.5511 6.53962 14.5333 6.5837C14.5156 6.62777 14.5105 6.67593 14.5186 6.72275V13.0191C14.5104 13.0663 14.5154 13.1149 14.5332 13.1594C14.5509 13.2039 14.5807 13.2426 14.6191 13.2712L15.4899 14.1285V14.3155H11.1009V14.1285L12.004 13.2493C12.0936 13.1597 12.0936 13.1353 12.0936 12.9998V7.90817L9.579 14.2936H9.23994L6.31286 7.90817V12.1889C6.28838 12.3681 6.34827 12.5498 6.47275 12.68L7.64984 14.1071V14.2941H4.31598V14.1071L5.49307 12.68C5.61807 12.5498 5.67484 12.3681 5.64202 12.1889V7.24098C5.64965 7.1731 5.64081 7.10438 5.61624 7.04065C5.59167 6.97691 5.5521 6.92003 5.50088 6.87484L4.45661 5.61598V5.42588H7.70088L10.2103 10.93L12.4155 5.42588H15.5108L15.5118 5.61598Z" fill="#8A9098"/>
</svg>
