<svg width="20" height="20" viewBox="0 0 20 20" fill="none" xmlns="http://www.w3.org/2000/svg">
<path d="M10.0002 14.1665C10.2363 14.1665 10.4343 14.0865 10.5943 13.9265C10.7538 13.7671 10.8335 13.5693 10.8335 13.3332V9.99984C10.8335 9.76373 10.7538 9.56567 10.5943 9.40567C10.4343 9.24623 10.2363 9.16651 10.0002 9.16651C9.76405 9.16651 9.56627 9.24623 9.40683 9.40567C9.24683 9.56567 9.16683 9.76373 9.16683 9.99984V13.3332C9.16683 13.5693 9.24683 13.7671 9.40683 13.9265C9.56627 14.0865 9.76405 14.1665 10.0002 14.1665ZM10.0002 7.49984C10.2363 7.49984 10.4343 7.41984 10.5943 7.25984C10.7538 7.10039 10.8335 6.90262 10.8335 6.6665C10.8335 6.43039 10.7538 6.23234 10.5943 6.07234C10.4343 5.91289 10.2363 5.83317 10.0002 5.83317C9.76405 5.83317 9.56627 5.91289 9.40683 6.07234C9.24683 6.23234 9.16683 6.43039 9.16683 6.6665C9.16683 6.90262 9.24683 7.10039 9.40683 7.25984C9.56627 7.41984 9.76405 7.49984 10.0002 7.49984ZM10.0002 18.2707H9.79183C9.72238 18.2707 9.65988 18.2568 9.60433 18.229C7.78488 17.6596 6.28488 16.531 5.10433 14.8432C3.92377 13.156 3.3335 11.2915 3.3335 9.24984V5.31234C3.3335 4.96512 3.43433 4.65262 3.636 4.37484C3.83711 4.09706 4.09739 3.89567 4.41683 3.77067L9.41683 1.89567C9.61127 1.82623 9.80572 1.7915 10.0002 1.7915C10.1946 1.7915 10.3891 1.82623 10.5835 1.89567L15.5835 3.77067C15.9029 3.89567 16.1635 4.09706 16.3652 4.37484C16.5663 4.65262 16.6668 4.96512 16.6668 5.31234V9.24984C16.6668 11.2915 16.0766 13.156 14.896 14.8432C13.7154 16.531 12.2154 17.6596 10.396 18.229C10.3266 18.2568 10.1946 18.2707 10.0002 18.2707ZM10.0002 16.5832C11.4446 16.1248 12.6391 15.2082 13.5835 13.8332C14.5279 12.4582 15.0002 10.9304 15.0002 9.24984V5.31234L10.0002 3.43734L5.00016 5.31234V9.24984C5.00016 10.9304 5.47238 12.4582 6.41683 13.8332C7.36127 15.2082 8.55572 16.1248 10.0002 16.5832Z" fill="white"/>
</svg>
