<svg width="20" height="20" viewBox="0 0 20 20" fill="none" xmlns="http://www.w3.org/2000/svg">
<path d="M5.52021 6.42836C5.3823 6.42836 5.25004 6.48315 5.15252 6.58067C5.055 6.67819 5.00021 6.81045 5.00021 6.94836V6.97979C5.00021 7.26693 5.23307 7.49979 5.52021 7.49979H9.48021C9.61812 7.49979 9.75039 7.445 9.84791 7.34749C9.94543 7.24997 10.0002 7.1177 10.0002 6.97979V6.94836C10.0002 6.81045 9.94543 6.67819 9.84791 6.58067C9.75039 6.48315 9.61812 6.42836 9.48021 6.42836H5.52021ZM5.52021 9.2855C5.3823 9.2855 5.25004 9.34029 5.15252 9.43781C5.055 9.53533 5.00021 9.66759 5.00021 9.8055V9.83693C5.00021 10.1241 5.23307 10.3569 5.52021 10.3569H13.0516C13.1896 10.3569 13.3218 10.3021 13.4193 10.2046C13.5169 10.1071 13.5716 9.97485 13.5716 9.83693V9.8055C13.5716 9.66759 13.5169 9.53533 13.4193 9.43781C13.3218 9.34029 13.1896 9.2855 13.0516 9.2855H5.52021ZM5.00021 12.6626C5.00021 12.3755 5.23307 12.1426 5.52021 12.1426H10.9088C11.1959 12.1426 11.4288 12.3755 11.4288 12.6626V12.6941C11.4288 12.832 11.374 12.9643 11.2765 13.0618C11.179 13.1593 11.0467 13.2141 10.9088 13.2141H5.52021C5.45192 13.2141 5.38431 13.2006 5.32122 13.1745C5.25813 13.1484 5.2008 13.1101 5.15252 13.0618C5.10423 13.0135 5.06593 12.9562 5.03979 12.8931C5.01366 12.83 5.00021 12.7624 5.00021 12.6941V12.6626ZM4.11021 2.85693C3.39981 2.85693 2.71851 3.13914 2.21618 3.64147C1.71385 4.1438 1.43164 4.8251 1.43164 5.5355V14.4641C1.43164 15.1745 1.71385 15.8558 2.21618 16.3581C2.71851 16.8604 3.39981 17.1426 4.11021 17.1426H15.8931C16.6035 17.1426 17.2848 16.8604 17.7871 16.3581C18.2894 15.8558 18.5716 15.1745 18.5716 14.4641V5.5355C18.5716 4.8251 18.2894 4.1438 17.7871 3.64147C17.2848 3.13914 16.6035 2.85693 15.8931 2.85693H4.11093H4.11021ZM2.50307 5.5355C2.50307 5.10926 2.67239 4.70048 2.97379 4.39908C3.27519 4.09769 3.68397 3.92836 4.11021 3.92836H15.8931C16.3193 3.92836 16.7281 4.09769 17.0295 4.39908C17.3309 4.70048 17.5002 5.10926 17.5002 5.5355V14.4641C17.5002 14.8903 17.3309 15.2991 17.0295 15.6005C16.7281 15.9019 16.3193 16.0712 15.8931 16.0712H4.11093C3.68469 16.0712 3.2759 15.9019 2.9745 15.6005C2.67311 15.2991 2.50378 14.8903 2.50378 14.4641V5.5355H2.50307Z" fill="white"/>
</svg>
