<svg width="20" height="20" viewBox="0 0 20 20" fill="none" xmlns="http://www.w3.org/2000/svg">
<path d="M18.3332 4.94065C17.7203 5.21223 17.0618 5.39574 16.3697 5.47868C17.0839 5.05133 17.6182 4.37873 17.8729 3.58638C17.2019 3.98494 16.4675 4.26549 15.7017 4.41582C15.1867 3.86594 14.5046 3.50147 13.7612 3.379C13.0178 3.25653 12.2548 3.3829 11.5906 3.73851C10.9264 4.09411 10.3982 4.65905 10.088 5.34561C9.77782 6.03217 9.70295 6.80194 9.87505 7.53541C8.51542 7.46714 7.18533 7.11375 5.97111 6.49817C4.75689 5.88259 3.68568 5.01857 2.82699 3.9622C2.53338 4.46867 2.36456 5.05589 2.36456 5.68127C2.36423 6.24426 2.50287 6.79863 2.76818 7.29519C3.03349 7.79175 3.41726 8.21514 3.88545 8.52781C3.34248 8.51053 2.81148 8.36381 2.33666 8.09987V8.14391C2.33661 8.93353 2.60974 9.69884 3.10972 10.31C3.6097 10.9212 4.30573 11.3405 5.0797 11.4969C4.576 11.6332 4.04791 11.6533 3.53532 11.5556C3.75369 12.2351 4.17905 12.8292 4.75186 13.2548C5.32467 13.6805 6.01625 13.9164 6.72978 13.9295C5.51852 14.8803 4.02263 15.3961 2.48273 15.3938C2.20996 15.3939 1.93741 15.378 1.6665 15.3461C3.22958 16.3511 5.04912 16.8845 6.90741 16.8824C13.198 16.8824 16.6369 11.6723 16.6369 7.15372C16.6369 7.00691 16.6332 6.85864 16.6266 6.71184C17.2955 6.2281 17.8729 5.62908 18.3317 4.94285L18.3332 4.94065Z" fill="#8A9098"/>
</svg>
