<?xml version="1.0" encoding="utf-8"?>
<svg viewBox="197.0575 185.0992 44 44" width="44" height="44" xmlns="http://www.w3.org/2000/svg">
    <defs>
        <clipPath id="clip-1">
            <rect width="44" height="44" fill="white" transform="translate(0.101929)"/>
        </clipPath>
        <linearGradient id="gradient-1" x1="22.1019" y1="0" x2="22.1019" y2="44" gradientUnits="userSpaceOnUse">
            <stop stop-color="#6246F5"/>
            <stop offset="0.493" stop-color="#5166EE"/>
            <stop offset="1" stop-color="#56B9F9"/>
        </linearGradient>
    </defs>
    <g clip-path="url(#clip-1)" transform="matrix(1, 0, 0, 1, 196.95559692382812, 185.0991668701172)">
        <path d="M44.1019 22C44.1019 34.1502 34.2522 44 22.1019 44C9.95166 44 0.101933 34.1502 0.101929 22C0.101924 9.84976 9.95166 4.58333e-06 22.1019 0C34.2521 -4.58333e-06 44.1019 9.84976 44.1019 22Z" fill="url(#gradient-1)"/>
        <path fill-rule="evenodd" clip-rule="evenodd" d="M22.1023 10.1202C15.5411 10.1202 10.2223 15.439 10.2223 22.0002C10.2223 22.6441 10.2735 23.276 10.3721 23.8922C10.4373 24.3128 10.6831 25.225 11.1447 25.5086C11.7207 25.8625 12.3727 25.5582 12.9065 25.3092L12.909 25.308C13.3364 25.1085 14.5911 24.5237 15.165 24.2562C15.2964 24.1907 15.6436 24.1031 15.9811 24.2759C16.403 24.4918 16.5269 24.9355 16.5018 25.2001C16.4767 25.4646 16.3343 25.8139 15.9749 25.9805C15.6873 26.1137 13.9949 26.9025 13.1847 27.2802C13.0108 27.3474 12.6258 27.5993 12.4767 28.0693C12.2904 28.6567 12.5809 29.11 12.6827 29.2403C12.7587 29.3438 12.9852 29.575 13.2833 29.6715C13.6559 29.792 13.9759 29.746 14.2258 29.632C14.4257 29.5409 18.3913 27.6914 20.3491 26.778C20.4773 26.7144 20.818 26.6314 21.1545 26.8081C21.5751 27.029 21.6961 27.4453 21.6749 27.7024C21.6537 27.9594 21.5113 28.3375 21.1609 28.5011C20.8805 28.6319 18.2759 29.8447 17.0087 30.4347C16.7853 30.5358 16.3318 30.892 16.3053 31.5077C16.2722 32.2773 16.8045 32.6421 17.0273 32.7447C17.2032 32.8354 17.6658 32.9653 18.1094 32.7601C18.5529 32.5548 23.2666 30.3564 25.568 29.2829C25.7045 29.2124 26.0754 29.1215 26.3916 29.2829C26.8057 29.4942 26.9433 29.8548 26.9433 30.1276C26.9433 30.4004 26.9309 30.6005 26.4994 30.9871C26.1219 31.3253 25.568 31.658 23.6805 32.4624C23.0341 32.7379 22.5935 32.9406 22.666 33.2885C22.7205 33.5498 22.9107 33.6493 23.5428 33.6207C24.1749 33.5921 27.0211 33.3687 29.8724 30.9871C32.3897 28.8087 33.9823 25.5904 33.9823 22.0002C33.9823 20.6772 33.7661 19.4048 33.367 18.2163C33.2313 18.273 33.0824 18.3043 32.9261 18.3043C32.2943 18.3043 31.7821 17.7922 31.7821 17.1603C31.7821 16.7055 32.0476 16.3126 32.432 16.1283C30.3878 12.5398 26.5276 10.1202 22.1023 10.1202ZM26.5024 17.6005C26.5024 18.2323 25.9902 18.7445 25.3584 18.7445C24.7266 18.7445 24.2144 18.2323 24.2144 17.6005C24.2144 16.9687 24.7266 16.4565 25.3584 16.4565C25.9902 16.4565 26.5024 16.9687 26.5024 17.6005Z" fill="white"/>
    </g>
</svg>