<svg width="555" height="336" fill="none" xmlns="http://www.w3.org/2000/svg"><path fill="#1E2229" d="M0 0h555v336H0z"/><path d="M166.363 169.807a4.018 4.018 0 0 0-2.859 1.185 4.016 4.016 0 0 0-1.186 2.859 4.02 4.02 0 0 0 1.186 2.86 4.032 4.032 0 0 0 2.859 1.182 4.034 4.034 0 0 0 2.86-1.182 4.05 4.05 0 0 0 0-5.719 4.019 4.019 0 0 0-2.86-1.185Zm2.376 6.42a3.367 3.367 0 0 1-4.751 0 3.341 3.341 0 0 1-.985-2.376c0-.897.351-1.74.985-2.375a3.324 3.324 0 0 1 4.485-.218l-2.352 2.351a.343.343 0 1 0 .485.485l2.35-2.351c1.071 1.318 1.008 3.257-.217 4.484Z" fill="#fff"/><path d="M185.105 223.455h14.074a1.957 1.957 0 0 0 1.955-1.954v-6.533h6.004a.343.343 0 0 0 .342-.343v-81.548a.342.342 0 0 0-.342-.342h-81.549a.343.343 0 0 0-.343.342v17.309h-2.903a.343.343 0 0 0-.343.343v46.245c0 .189.154.343.343.343h2.903v17.308c0 .19.154.343.343.343h5.498v6.533c0 1.077.876 1.954 1.955 1.954h14.074a1.956 1.956 0 0 0 1.955-1.954v-6.533h34.079v6.533c0 1.077.876 1.954 1.955 1.954Zm15.344-1.954c0 .7-.57 1.269-1.27 1.269h-14.074c-.7 0-1.27-.569-1.27-1.269v-6.533h16.614v6.533Zm-77.764-24.869v-13.665h8.148a.342.342 0 0 0 0-.685h-8.148v-8.088h8.148a.343.343 0 0 0 0-.685h-8.148v-8.089h8.148a.342.342 0 0 0 0-.685h-8.148v-13.664h12.716v45.561h-12.716Zm25.701 24.869c0 .7-.57 1.269-1.27 1.269h-14.074c-.7 0-1.27-.569-1.27-1.269v-6.533h16.614v6.533Zm-22.455-7.218v-16.966h9.47v7.154c0 .189.154.342.343.342h61.239a.342.342 0 0 0 .342-.342v-61.239a.342.342 0 0 0-.342-.342h-61.239a.343.343 0 0 0-.343.342v7.154h-9.47V133.42h80.864v80.863h-80.864Zm42.397-22.858a4.184 4.184 0 1 1-3.93 0 .342.342 0 0 0 .18-.302v-2.611c.588.072 1.181.123 1.785.123.604 0 1.197-.051 1.784-.123v2.611c0 .126.069.243.181.302Zm-1.965-3.476c-6.804 0-12.69-4.973-13.87-11.628h4.765c1.089 4.011 4.753 6.974 9.105 6.974 4.351 0 8.015-2.963 9.104-6.974h4.765c-1.18 6.655-7.064 11.628-13.869 11.628Zm-1.967-31.672a4.178 4.178 0 0 1-2.218-3.694 4.19 4.19 0 0 1 4.185-4.185 4.189 4.189 0 0 1 4.184 4.185 4.178 4.178 0 0 1-2.218 3.694.341.341 0 0 0-.182.302v2.612a14.615 14.615 0 0 0-1.784-.123c-.604 0-1.197.051-1.785.123v-2.612a.341.341 0 0 0-.182-.302Zm1.967 3.476c6.805 0 12.689 4.974 13.869 11.629h-4.765c-1.089-4.011-4.753-6.974-9.104-6.974-4.352 0-8.016 2.963-9.105 6.974h-4.765c1.18-6.655 7.064-11.629 13.87-11.629Zm9.269 12.314h5.014l.001.001.01-.001h2.977a.341.341 0 0 0 .302-.181 4.179 4.179 0 0 1 3.695-2.22 4.19 4.19 0 0 1 4.185 4.185 4.19 4.19 0 0 1-4.185 4.185 4.18 4.18 0 0 1-3.695-2.219.341.341 0 0 0-.302-.181h-8.002a9.46 9.46 0 0 0 .174-1.785c0-.61-.063-1.205-.174-1.784Zm-.773-.303c.165.671.262 1.367.262 2.087 0 4.83-3.929 8.759-8.758 8.759-4.829 0-8.759-3.929-8.759-8.759 0-4.829 3.93-8.758 8.759-8.758 4.091 0 7.526 2.824 8.484 6.622-.001.004-.004.006-.004.01 0 .015.014.024.016.039Zm-17.766.303a9.458 9.458 0 0 0-.174 1.784c0 .611.063 1.206.174 1.785h-8.002a.341.341 0 0 0-.302.181 4.18 4.18 0 0 1-3.695 2.219 4.19 4.19 0 0 1-4.185-4.185 4.19 4.19 0 0 1 4.185-4.185c1.55 0 2.965.85 3.695 2.22.06.112.175.181.302.181h8.002Zm23.836 4.254h2.504a4.864 4.864 0 0 0 4.198 2.4 4.876 4.876 0 0 0 4.871-4.87 4.877 4.877 0 0 0-4.871-4.87 4.863 4.863 0 0 0-4.198 2.401h-2.504a14.678 14.678 0 0 0-3.944-7.778h19.655v20.506h-19.664a14.684 14.684 0 0 0 3.953-7.789Zm-4.666-13.402a14.834 14.834 0 0 0-7.431-3.632v-2.507a4.861 4.861 0 0 0 2.401-4.197 4.875 4.875 0 0 0-4.87-4.87 4.876 4.876 0 0 0-4.87 4.87 4.86 4.86 0 0 0 2.4 4.197v2.507c-6.09 1.046-11.049 5.879-12.097 12.095h-2.504a4.863 4.863 0 0 0-4.198-2.401 4.876 4.876 0 0 0-4.87 4.87 4.875 4.875 0 0 0 4.87 4.87 4.864 4.864 0 0 0 4.198-2.4h2.504c1.048 6.216 6.008 11.049 12.097 12.095v2.506a4.863 4.863 0 0 0-2.4 4.198 4.876 4.876 0 0 0 4.87 4.87 4.875 4.875 0 0 0 4.87-4.87 4.868 4.868 0 0 0-2.401-4.198v-2.506a14.844 14.844 0 0 0 7.42-3.621h20.388v19.333h-60.554v-60.553h60.554v19.344h-20.377Z" fill="#fff"/><rect x="187.232" y="112.432" width="40.609" height="40.608" rx="20.304" fill="#1E2229"/><path d="M207.955 142.765a9.946 9.946 0 0 0 5.443-1.617 9.64 9.64 0 0 0 3.608-4.307 9.412 9.412 0 0 0 .558-5.545 9.537 9.537 0 0 0-2.681-4.914 9.864 9.864 0 0 0-5.017-2.626 9.974 9.974 0 0 0-5.66.546 9.747 9.747 0 0 0-4.397 3.534 9.457 9.457 0 0 0-1.651 5.332 9.507 9.507 0 0 0 2.872 6.784 9.91 9.91 0 0 0 6.925 2.813Zm0-18.417c1.781 0 3.522.517 5.003 1.486a8.868 8.868 0 0 1 3.316 3.959 8.643 8.643 0 0 1 .512 5.096 8.762 8.762 0 0 1-2.464 4.516 9.059 9.059 0 0 1-4.61 2.414 9.171 9.171 0 0 1-5.203-.502 8.965 8.965 0 0 1-4.041-3.248 8.69 8.69 0 0 1-1.518-4.901 8.738 8.738 0 0 1 2.641-6.234 9.106 9.106 0 0 1 6.364-2.586Zm14.147 7.096a.391.391 0 0 1 .117.275.382.382 0 0 1-.117.275l-1.465 1.448a.385.385 0 0 1-.13.083.342.342 0 0 1-.152.031.35.35 0 0 1-.149-.031.37.37 0 0 1-.13-.083l-1.481-1.448a.388.388 0 0 1 .129-.634.396.396 0 0 1 .304 0 .41.41 0 0 1 .129.084l.757.743a11.643 11.643 0 0 0-3.474-7.336 12.102 12.102 0 0 0-7.492-3.397 12.177 12.177 0 0 0-7.958 2.151 11.744 11.744 0 0 0-4.652 6.681.387.387 0 0 1-.176.255.41.41 0 0 1-.455-.02.395.395 0 0 1-.105-.118.374.374 0 0 1-.031-.306 12.52 12.52 0 0 1 4.99-7.143 12.982 12.982 0 0 1 8.528-2.265 12.895 12.895 0 0 1 7.991 3.693 12.412 12.412 0 0 1 3.637 7.889l.84-.823a.397.397 0 0 1 .545-.004Zm-26.896 2.625-.84.823a.403.403 0 0 1-.545-.016.386.386 0 0 1-.013-.534l1.464-1.447a.409.409 0 0 1 .13-.084.395.395 0 0 1 .318 0 .36.36 0 0 1 .13.084l1.48 1.447a.39.39 0 0 1 0 .55.402.402 0 0 1-.561 0l-.758-.742a11.651 11.651 0 0 0 3.475 7.336 12.102 12.102 0 0 0 7.492 3.397 12.178 12.178 0 0 0 7.958-2.152 11.742 11.742 0 0 0 4.652-6.681.387.387 0 0 1 .326-.31.392.392 0 0 1 .304.075.386.386 0 0 1 .137.425 12.517 12.517 0 0 1-4.991 7.142 12.98 12.98 0 0 1-8.528 2.266 12.891 12.891 0 0 1-7.99-3.694 12.41 12.41 0 0 1-3.637-7.888l-.003.003Zm12.473-.621a.375.375 0 0 1-.12-.277v-6.286c0-.103.041-.202.116-.274a.399.399 0 0 1 .56 0 .383.383 0 0 1 .116.274v6.119l3.463 3.32a.382.382 0 0 1 .091.426.39.39 0 0 1-.371.242.4.4 0 0 1-.275-.112l-3.58-3.432Z" fill="#0FFD6A"/><rect x="187.232" y="112.432" width="40.609" height="40.608" rx="20.304" stroke="#0FFD6A" stroke-width=".864"/><g filter="url(#a)"><path d="M123.301 153.809h266.4v22.2l-7.8 7.2-11.4-5.4h-3.6l1.2 4.2 19.2 16.2h-264v-44.4Z" fill="url(#b)" fill-opacity=".08" shape-rendering="crispEdges"/></g><path d="M366.752 176.721c.546-.567 1.772-1.425 3.855-.805 1.25.372 5.229 3.192 8.521 5.627a6.567 6.567 0 0 0-.273 2.417c-3.842-2.863-7.93-5.76-8.846-6.032a1.704 1.704 0 0 0-1.744.248 2.202 2.202 0 0 0-.312 2.157c.746 2.193 14.683 13.736 20.428 16.92 5.011 2.777 8.311 1.204 10.719.056a58.402 58.402 0 0 1 12.8-4.171v.41c.002.567.08 1.132.234 1.678a57.341 57.341 0 0 0-12.13 3.978 13.988 13.988 0 0 1-6.241 1.696 13.077 13.077 0 0 1-6.4-1.811c-5.03-2.788-20.267-14.759-21.397-18.079a4.25 4.25 0 0 1 .786-4.289Z" fill="#0FFD6A"/><path d="M402.15 177.839c-2.012.2-3.97.764-5.78 1.663-.87.427-1.781.763-2.72 1.003a22.712 22.712 0 0 1-3.991.324c-2.48.067-5.291.143-6.199 1.315a2.289 2.289 0 0 0-.324 2.01c.251.797.958 1.398 2.045 1.736 2.792.87 10.428 1.672 13.588 1.24a1.04 1.04 0 0 1 .777.204 1.049 1.049 0 0 1 .38 1.103 1.059 1.059 0 0 1-.486.639c-.119.07-.25.115-.387.134-.832.1-1.669.145-2.506.135-3.915 0-9.552-.691-11.99-1.45-1.748-.545-2.964-1.649-3.424-3.111a4.413 4.413 0 0 1 .668-3.926c1.517-1.958 4.712-2.044 7.802-2.127a21.46 21.46 0 0 0 3.598-.277 12.455 12.455 0 0 0 2.312-.868 18.757 18.757 0 0 1 6.446-1.838c3.179-.291 7.658.874 10.428 1.734a6.257 6.257 0 0 0-.467 2.057c-2.6-.815-6.899-1.964-9.77-1.7Zm16.048-2.136h13.647a1.049 1.049 0 1 1 0 2.099h-8.398v17.845h8.398a1.05 1.05 0 0 1 0 2.1h-13.647a4.203 4.203 0 0 1-4.199-4.199v-13.646a4.203 4.203 0 0 1 4.199-4.199Z" fill="#0FFD6A"/><path d="M383.032 152.607a10.494 10.494 0 0 1 9.698 6.481 10.493 10.493 0 0 1-7.65 14.312 10.502 10.502 0 0 1-10.776-4.464 10.497 10.497 0 0 1-1.769-5.831 10.509 10.509 0 0 1 10.497-10.498Z" fill="#fff"/><path fill-rule="evenodd" clip-rule="evenodd" d="M394.829 159.049c-.077-.2-.159-.397-.246-.591a10.483 10.483 0 0 1 10.551.644 10.5 10.5 0 0 1 2.52 15.086c-2.127-.581-4.522-.731-6.969-.428a20.928 20.928 0 0 0-7.643 2.497 10.505 10.505 0 0 1-2.76-3.057 10.598 10.598 0 0 0 2.272-1.853c1.468-1.578 2.468-3.589 2.873-5.778a12.069 12.069 0 0 0-.598-6.52Z" fill="#fff"/><path d="M366.896 162.512a1.049 1.049 0 0 1-1.049 1.049h-9.448a1.049 1.049 0 1 1 0-2.099h9.448a1.05 1.05 0 0 1 1.049 1.05Zm-13.647 0a1.05 1.05 0 0 1-1.05 1.049h-1.05a1.049 1.049 0 1 1 0-2.099h1.05a1.053 1.053 0 0 1 1.05 1.05Zm16.422 7.345a1.05 1.05 0 0 1-1.05 1.05h-9.447c-.279 0-.546-.111-.743-.307a1.054 1.054 0 0 1 0-1.485 1.05 1.05 0 0 1 .743-.307h9.447a1.05 1.05 0 0 1 1.05 1.049Zm-13.648 0a1.05 1.05 0 0 1-1.05 1.05h-1.049c-.279 0-.546-.111-.743-.307a1.054 1.054 0 0 1 0-1.485 1.05 1.05 0 0 1 .743-.307h1.049a1.05 1.05 0 0 1 1.05 1.049Zm13.648-14.695a1.05 1.05 0 0 1-1.05 1.05h-9.447a1.05 1.05 0 0 1 0-2.1h9.447a1.05 1.05 0 0 1 1.05 1.05Zm-13.648 0a1.049 1.049 0 0 1-1.05 1.05h-1.049a1.05 1.05 0 0 1 0-2.1h1.049a1.05 1.05 0 0 1 1.05 1.05Z" fill="#fff"/><path d="M307.885 147.282a7.553 7.553 0 0 0-9.539.942 7.565 7.565 0 0 0-2.216 5.341 7.558 7.558 0 0 0 9.03 7.411 7.56 7.56 0 0 0 5.508-10.303 7.557 7.557 0 0 0-2.783-3.391Zm-17.4 5.976a.216.216 0 0 0-.153-.368h-7.341a.216.216 0 0 0 0 .431h7.341a.218.218 0 0 0 .153-.063Zm-10.604 0a.213.213 0 0 0 0-.305.212.212 0 0 0-.152-.063h-.816a.212.212 0 0 0-.152.063.216.216 0 0 0 .152.368h.816a.216.216 0 0 0 .152-.063Zm12.76 5.707a.216.216 0 0 0 .063-.153.212.212 0 0 0-.063-.152.212.212 0 0 0-.152-.063h-7.341a.216.216 0 1 0 0 .431h7.341a.216.216 0 0 0 .152-.063Zm-10.603 0a.216.216 0 0 0-.153-.368h-.815a.214.214 0 0 0-.216.215.22.22 0 0 0 .063.153c.041.04.095.063.153.063h.815a.22.22 0 0 0 .153-.063Zm10.603-11.419a.214.214 0 0 0 .063-.153.212.212 0 0 0-.063-.152.212.212 0 0 0-.152-.063h-7.341a.214.214 0 0 0-.216.215c0 .058.023.112.063.153.041.04.095.063.153.063h7.341a.216.216 0 0 0 .152-.063Zm-10.603 0a.216.216 0 0 0-.153-.368h-.815a.214.214 0 0 0-.216.215c0 .058.023.112.063.153.041.04.095.063.153.063h.815a.22.22 0 0 0 .153-.063Zm-5.349 46.537a7.548 7.548 0 0 0-9.539.942 7.573 7.573 0 0 0-2.216 5.341 7.557 7.557 0 1 0 11.755-6.283Zm-17.399 5.975a.216.216 0 0 0-.153-.368h-7.341a.213.213 0 0 0-.152.064.213.213 0 0 0 0 .305c.04.04.095.063.152.063h7.341a.217.217 0 0 0 .153-.064Zm-10.604 0a.212.212 0 0 0 .063-.152.212.212 0 0 0-.063-.152.213.213 0 0 0-.152-.064h-.816a.213.213 0 0 0-.152.064.213.213 0 0 0 0 .305c.04.04.095.063.152.063h.816a.213.213 0 0 0 .152-.064Zm12.76 5.708a.216.216 0 0 0-.153-.369h-7.341a.213.213 0 0 0-.152.064.216.216 0 0 0 .152.368h7.341a.22.22 0 0 0 .153-.063Zm-10.604 0a.213.213 0 0 0 0-.305.213.213 0 0 0-.152-.064h-.816a.213.213 0 0 0-.152.064.216.216 0 0 0 .152.368h.816a.216.216 0 0 0 .152-.063Zm10.604-11.419a.216.216 0 0 0-.153-.369h-7.341a.213.213 0 0 0-.152.064.216.216 0 0 0 .152.368h7.341a.22.22 0 0 0 .153-.063Zm-10.604 0a.213.213 0 0 0 0-.305.213.213 0 0 0-.152-.064h-.816a.213.213 0 0 0-.152.064.216.216 0 0 0 .152.368h.816a.216.216 0 0 0 .152-.063Z" stroke="#fff" stroke-width="1.2"/><defs><linearGradient id="b" x1="369.392" y1="178.576" x2="187.213" y2="178.576" gradientUnits="userSpaceOnUse"><stop stop-color="#0FFD6A"/><stop offset="1" stop-color="#0FFD6A" stop-opacity="0"/></linearGradient><filter id="a" x="118.501" y="149.009" width="276" height="54" filterUnits="userSpaceOnUse" color-interpolation-filters="sRGB"><feFlood flood-opacity="0" result="BackgroundImageFix"/><feColorMatrix in="SourceAlpha" values="0 0 0 0 0 0 0 0 0 0 0 0 0 0 0 0 0 0 127 0" result="hardAlpha"/><feOffset/><feGaussianBlur stdDeviation="2.4"/><feComposite in2="hardAlpha" operator="out"/><feColorMatrix values="0 0 0 0 0 0 0 0 0 0 0 0 0 0 0 0 0 0 0.25 0"/><feBlend in2="BackgroundImageFix" result="effect1_dropShadow_9653_23766"/><feBlend in="SourceGraphic" in2="effect1_dropShadow_9653_23766" result="shape"/><feGaussianBlur stdDeviation="1.8" result="effect2_foregroundBlur_9653_23766"/></filter></defs></svg>