<svg width="555" height="336" fill="none" xmlns="http://www.w3.org/2000/svg"><path fill="#1E2229" d="M0 0h555v336H0z"/><g filter="url(#a)"><rect x="203" y="95" width="148" height="148" rx="74" fill="#0FFD6A" fill-opacity=".08" shape-rendering="crispEdges"/><rect x="245" y="137" width="64" height="64" rx="32" fill="#0FFD6A"/><path d="M283.645 165.109c1.179.045 2.366.008 3.533.156 1.029.132 2.056.385 2.938 1.041 1.022.758 1.614 1.793 1.886 3.059.229 1.054.161 2.107.048 3.162a5.946 5.946 0 0 1-.176.969c-.087.306-.016.561.093.845.429 1.101.641 2.234.432 3.433-.143.818-.454 1.544-.992 2.147-.221.248-.292.509-.302.84-.035 1.17-.24 2.29-.924 3.266-.356.511-.809.901-1.274 1.286-.14.117-.27.285-.338.458-.137.356-.224.733-.342 1.098-.231.723-.577 1.399-1.065 1.943-.694.776-1.548 1.258-2.603 1.363a8.14 8.14 0 0 1-2.494-.137c-.668-.139-1.27.034-1.856.348-.419.224-.83.467-1.263.651-.946.404-1.93.447-2.931.274a7.898 7.898 0 0 1-2.661-.975c-.984-.577-1.948-1.209-2.777-2.033-.29-.287-.584-.569-.886-.841-.54-.486-1.162-.537-1.819-.342-.285.085-.565.196-.846.291-.805.274-1.49.009-2.064-.57-.745-.75-1.299-1.663-1.845-2.576a15.004 15.004 0 0 1-1.625-3.722c-.407-1.467-.653-2.972-.37-4.499.16-.869.322-1.754.8-2.525.178-.289.334-.594.492-.896.433-.831 1.171-1.166 1.998-1.344 1.186-.255 2.122-.921 2.937-1.844.583-.661.873-1.489 1.296-2.241.389-.691.687-1.438 1.049-2.147a118.493 118.493 0 0 1 1.827-3.456c.476-.853.998-1.68 1.525-2.499.272-.421.435-.868.532-1.358.267-1.345.298-2.715.426-4.074.078-.814.243-1.618.364-2.429.089-.591.332-1.114.616-1.621.477-.845 1.198-1.249 2.117-1.277 1.474-.043 2.545.69 3.395 1.903.902 1.288 1.368 2.733 1.546 4.301.124 1.088-.114 2.115-.497 3.104-.697 1.793-1.343 3.6-1.579 5.537-.044.361-.059.718.037 1.088.137.529.305.764.819.834.467.063.94.096 1.41.1.47.005.94-.039 1.41-.062a.097.097 0 0 0 .003-.029Zm.162 2.079v.028c-.137.009-.274.02-.411.026-.925.03-1.849.089-2.773-.066-1.283-.215-2.01-1.072-2.335-2.281-.298-1.104-.174-2.231.05-3.32.367-1.785.982-3.493 1.644-5.181.208-.529.342-1.08.259-1.662-.057-.414-.097-.84-.204-1.242-.301-1.129-.812-2.118-1.751-2.828-.553-.418-1.669-.347-1.902.444-.071.241-.229.464-.265.707-.133.882-.244 1.77-.341 2.656-.131 1.212-.209 2.431-.37 3.638a5.135 5.135 0 0 1-.86 2.255c-.508.74-.984 1.507-1.423 2.293-.627 1.122-1.207 2.273-1.807 3.412-.161.304-.329.603-.476.912-.404.851-.791 1.711-1.202 2.559a4.26 4.26 0 0 1-.501.826c-.422.525-.837 1.051-1.359 1.489-.876.736-1.846 1.25-2.935 1.477a1.56 1.56 0 0 0-1.114.819c-.602 1.08-.887 2.257-.887 3.507-.001 1.423.441 2.735.974 4.013.535 1.283 1.317 2.406 2.134 3.505.182.246.402.281.652.208.27-.077.526-.204.798-.273 1.301-.339 2.475-.133 3.471.885.411.419.838.829 1.3 1.182.87.671 1.759 1.31 2.786 1.725.819.331 1.638.499 2.508.373.147-.022.287-.104.432-.158-.099-.115-.183-.251-.298-.344a3.149 3.149 0 0 1-1.06-1.521c-.256-.798-.247-1.587-.047-2.381.068-.272.339-.547.296-.775-.051-.27-.365-.475-.524-.735-.516-.84-.567-1.791-.476-2.74.043-.439.139-.902.463-1.265.232-.262.197-.577.104-.924-.449-1.661-.207-3.15 1.116-4.302a.601.601 0 0 0 .225-.564c-.127-1.048.295-1.915.9-2.651.808-.981 1.914-1.421 3.13-1.564.939-.112 1.867-.045 2.797.13.86.162 1.693.177 2.32-.667.233-.314.899-.277 1.17-.016.358.345.485 1.048.236 1.41-.715 1.032-1.718 1.443-2.895 1.426-.398-.006-.797-.082-1.191-.156a6.626 6.626 0 0 0-2.399-.025c-.748.132-1.435.438-1.949 1.071-.528.648-.392 1.241.371 1.513.413.147.833.275 1.26.363 1.124.231 2.254.435 3.382.646.222.041.449.075.675.085 1.634.066 3.019-.611 4.292-1.605a.894.894 0 0 0 .3-.489c.229-1.144.375-2.308.12-3.459-.137-.619-.475-1.167-1.019-1.527a4.541 4.541 0 0 0-2.22-.743c-1.057-.08-2.114-.085-3.171-.119Zm1.552 12.803.01-.05c.187-.009.376-.023.563-.026 1.043-.022 2.021-.348 2.985-.723.276-.106.57-.218.793-.408.773-.662 1.095-1.526.913-2.571-.112-.646-.11-.636-.655-.299-1.49.924-3.084 1.474-4.832 1.273-1.084-.125-2.161-.351-3.237-.558-.94-.183-1.877-.382-2.727-.888-.257-.153-.498 0-.705.196-.529.503-.616 1.133-.428 1.804.067.246.228.532.428.658.491.306 1.004.58 1.587.679.637.11 1.26.302 1.897.407 1.134.187 2.273.339 3.408.506Zm-.285 4.138c.625-.082 1.34-.125 2.031-.283 1.092-.247 1.724-1.039 2.037-2.133.028-.098.015-.208.021-.311-.113.007-.23 0-.339.028-.573.143-1.137.341-1.716.439-.927.155-1.858.237-2.798.028-.612-.136-1.237-.208-1.857-.291-1.295-.172-2.583-.371-3.803-.896a34.26 34.26 0 0 0-.526-.218c-.174-.07-.302-.032-.382.161-.2.49-.259.985-.053 1.488.04.096.098.209.177.256.349.201.694.425 1.067.561.908.33 1.848.529 2.799.667 1.085.159 2.166.326 3.342.504Zm-1.665 4.043c.258-.012.526.014.778-.046.663-.158 1.346-.296 1.748-.978.137-.234.294-.455.426-.693.135-.245.063-.353-.226-.344-.365.013-.737.09-1.095.048a75.402 75.402 0 0 1-3.508-.483c-.843-.137-1.677-.337-2.514-.518-.241-.052-.452-.018-.621.175-.391.444-.291 1.348.16 1.731.511.436 1.123.585 1.737.687 1.033.173 2.074.283 3.115.421ZM288.597 146.928c2.213.709 4.005 2.055 5.362 4.02.228.329.411.708.553 1.089.274.73.257 1.448-.205 2.115-.324.467-.672.922-.936 1.426-.651 1.237-1.713 1.345-2.845 1.136-1.746-.322-3.233-1.245-4.571-2.426-.847-.747-1.573-1.61-2.033-2.692-.34-.801-.447-1.566.11-2.325.335-.455.644-.938.917-1.439.597-1.097 1.529-1.348 2.624-1.188.346.048.682.187 1.024.284Zm1.658 8.435c.278.03.629.085.98.098.862.029 1.071-.297.723-1.12a3.154 3.154 0 0 0-.354-.642c-1.333-1.804-2.986-3.102-5.145-3.636-.514-.127-1.062-.333-1.403.167-.353.518.037 1.033.332 1.462 1.214 1.764 2.875 2.892 4.867 3.671Zm-2.299-7.361c-.262-.012-.769-.077-1.27-.037-.183.015-.346.278-.52.429.147.105.283.259.446.306 2.557.727 4.658 2.132 6.131 4.488.042.067.107.119.165.175.214.201.356.088.435-.136.205-.574-.04-1.096-.337-1.502-1.25-1.708-2.854-2.932-5.05-3.723Z" fill="#000"/><rect x="203.5" y="95.5" width="147" height="147" rx="73.5" stroke="#0FFD6A" shape-rendering="crispEdges"/></g><g filter="url(#b)"><rect x="77" y="55" width="56" height="56" rx="28" fill="#0FFD6A"/><path d="M105 83a7 7 0 1 0 0-14 7 7 0 0 0 0 14Zm4.9 1.75h-.913a9.531 9.531 0 0 1-3.987.875 9.552 9.552 0 0 1-3.987-.875h-.913a7.352 7.352 0 0 0-7.35 7.35v2.275A2.626 2.626 0 0 0 95.375 97h19.25a2.626 2.626 0 0 0 2.625-2.625V92.1a7.352 7.352 0 0 0-7.35-7.35Z" fill="#000"/></g><g filter="url(#c)"><rect x="77" y="226" width="56" height="56" rx="28" fill="#0FFD6A"/><path d="M105 254a7 7 0 1 0 0-14 7 7 0 0 0 0 14Zm4.9 1.75h-.913a9.528 9.528 0 0 1-7.974 0h-.913a7.352 7.352 0 0 0-7.35 7.35v2.275A2.626 2.626 0 0 0 95.375 268h19.25a2.626 2.626 0 0 0 2.625-2.625V263.1a7.352 7.352 0 0 0-7.35-7.35Z" fill="#000"/></g><g filter="url(#d)"><rect width="56" height="56" rx="28" transform="matrix(-1 0 0 1 477.809 55)" fill="#0FFD6A"/><path d="M449.809 83a7 7 0 0 1-7-7 7 7 0 1 1 7 7Zm-4.9 1.75h.913a9.531 9.531 0 0 0 3.987.875 9.547 9.547 0 0 0 3.986-.875h.914a7.352 7.352 0 0 1 7.35 7.35v2.275A2.626 2.626 0 0 1 459.434 97h-19.25a2.625 2.625 0 0 1-2.625-2.625V92.1a7.352 7.352 0 0 1 7.35-7.35Z" fill="#000"/></g><g filter="url(#e)"><rect width="56" height="56" rx="28" transform="matrix(-1 0 0 1 477.809 226)" fill="#0FFD6A"/><path d="M449.809 254a7 7 0 0 1-7-7 7 7 0 1 1 7 7Zm-4.9 1.75h.913a9.528 9.528 0 0 0 7.973 0h.914a7.352 7.352 0 0 1 7.35 7.35v2.275a2.626 2.626 0 0 1-2.625 2.625h-19.25a2.625 2.625 0 0 1-2.625-2.625V263.1a7.352 7.352 0 0 1 7.35-7.35Z" fill="#000"/></g><path d="m209.058 139.067-2.886-5-2.887 5h5.773ZM130 94l1.791 1.034.5-.866-1.791-1.034-.5.866Zm5.373 3.102 3.582 2.068.5-.866-3.582-2.068-.5.866Zm7.165 4.137 3.582 2.068.5-.866-3.582-2.068-.5.866Zm7.164 4.136 3.582 2.068.5-.866-3.582-2.068-.5.866Zm7.164 4.136 3.583 2.068.5-.866-3.583-2.068-.5.866Zm7.165 4.137 3.582 2.068.5-.866-3.582-2.068-.5.866Zm7.164 4.136 3.582 2.068.5-.866-3.582-2.068-.5.866Zm7.165 4.136 3.582 2.069.5-.866-3.582-2.069-.5.866Zm7.164 4.137 3.582 2.068.5-.866-3.582-2.068-.5.866Zm7.164 4.136 3.583 2.068.5-.866-3.583-2.068-.5.866Zm7.165 4.136 3.582 2.069.5-.866-3.582-2.069-.5.866Zm9.205 4.738-5.773-10-5.774 10h11.547ZM129.75 94.433l1.791 1.034 1-1.732-1.791-1.034-1 1.732Zm5.373 3.102 3.582 2.068 1-1.732-3.582-2.068-1 1.732Zm7.165 4.137 3.582 2.068 1-1.732-3.582-2.069-1 1.733Zm7.164 4.136 3.582 2.068 1-1.732-3.582-2.068-1 1.732Zm7.164 4.136 3.583 2.068 1-1.732-3.583-2.068-1 1.732Zm7.165 4.137 3.582 2.068 1-1.732-3.582-2.068-1 1.732Zm7.164 4.136 3.582 2.068 1-1.732-3.582-2.068-1 1.732Zm7.165 4.136 3.582 2.069 1-1.732-3.582-2.069-1 1.732Zm7.164 4.137 3.582 2.068 1-1.732-3.582-2.068-1 1.732Zm7.164 4.136 3.583 2.068 1-1.732-3.583-2.068-1 1.732Zm7.165 4.136 3.582 2.069 1-1.732-3.582-2.069-1 1.732ZM345.75 139.067l2.887-5 2.887 5h-5.774ZM424.809 94l-1.792 1.034-.5-.866 1.792-1.034.5.866Zm-5.374 3.102-3.582 2.068-.5-.866 3.582-2.068.5.866Zm-7.164 4.137-3.582 2.068-.5-.866 3.582-2.068.5.866Zm-7.164 4.136-3.583 2.068-.5-.866 3.583-2.068.5.866Zm-7.165 4.136-3.582 2.068-.5-.866 3.582-2.068.5.866Zm-7.164 4.137-3.582 2.068-.5-.866 3.582-2.068.5.866Zm-7.165 4.136-3.582 2.068-.5-.866 3.582-2.068.5.866Zm-7.164 4.136-3.582 2.069-.5-.866 3.582-2.069.5.866Zm-7.164 4.137-3.583 2.068-.5-.866 3.583-2.068.5.866Zm-7.165 4.136-3.582 2.068-.5-.866 3.582-2.068.5.866Zm-7.164 4.136-3.582 2.069-.5-.866 3.582-2.069.5.866Zm-9.206 4.738 5.774-10 5.773 10H345.75Zm79.309-44.634-1.792 1.034-1-1.732 1.792-1.034 1 1.732Zm-5.374 3.102-3.582 2.068-1-1.732 3.582-2.068 1 1.732Zm-7.164 4.137-3.582 2.068-1-1.732 3.582-2.069 1 1.733Zm-7.164 4.136-3.583 2.068-1-1.732 3.583-2.068 1 1.732Zm-7.165 4.136-3.582 2.068-1-1.732 3.582-2.068 1 1.732Zm-7.164 4.137-3.582 2.068-1-1.732 3.582-2.068 1 1.732Zm-7.165 4.136-3.582 2.068-1-1.732 3.582-2.068 1 1.732Zm-7.164 4.136-3.582 2.069-1-1.732 3.582-2.069 1 1.732Zm-7.164 4.137-3.583 2.068-1-1.732 3.583-2.068 1 1.732Zm-7.165 4.136-3.582 2.068-1-1.732 3.582-2.068 1 1.732Zm-7.164 4.136-3.582 2.069-1-1.732 3.582-2.069 1 1.732ZM209.058 198.433l-2.886 5-2.887-5h5.773ZM130 243.5l1.791-1.034.5.866-1.791 1.034-.5-.866Zm5.373-3.102 3.582-2.068.5.866-3.582 2.068-.5-.866Zm7.165-4.137 3.582-2.068.5.866-3.582 2.068-.5-.866Zm7.164-4.136 3.582-2.068.5.866-3.582 2.068-.5-.866Zm7.164-4.136 3.583-2.068.5.866-3.583 2.068-.5-.866Zm7.165-4.137 3.582-2.068.5.866-3.582 2.068-.5-.866Zm7.164-4.136 3.582-2.068.5.866-3.582 2.068-.5-.866Zm7.165-4.136 3.582-2.069.5.866-3.582 2.069-.5-.866Zm7.164-4.137 3.582-2.068.5.866-3.582 2.068-.5-.866Zm7.164-4.136 3.583-2.068.5.866-3.583 2.068-.5-.866Zm7.165-4.136 3.582-2.069.5.866-3.582 2.069-.5-.866Zm9.205-4.738-5.773 10-5.774-10h11.547Zm-79.308 44.634 1.791-1.034 1 1.732-1.791 1.034-1-1.732Zm5.373-3.102 3.582-2.068 1 1.732-3.582 2.068-1-1.732Zm7.165-4.137 3.582-2.068 1 1.732-3.582 2.068-1-1.732Zm7.164-4.136 3.582-2.068 1 1.732-3.582 2.068-1-1.732Zm7.164-4.136 3.583-2.068 1 1.732-3.583 2.068-1-1.732Zm7.165-4.137 3.582-2.068 1 1.732-3.582 2.068-1-1.732Zm7.164-4.136 3.582-2.068 1 1.732-3.582 2.068-1-1.732Zm7.165-4.136 3.582-2.069 1 1.732-3.582 2.069-1-1.732Zm7.164-4.137 3.582-2.068 1 1.732-3.582 2.068-1-1.732Zm7.164-4.136 3.583-2.068 1 1.732-3.583 2.068-1-1.732Zm7.165-4.136 3.582-2.069 1 1.732-3.582 2.069-1-1.732ZM345.75 198.433l2.887 5 2.887-5h-5.774Zm79.059 45.067-1.792-1.034-.5.866 1.792 1.034.5-.866Zm-5.374-3.102-3.582-2.068-.5.866 3.582 2.068.5-.866Zm-7.164-4.137-3.582-2.068-.5.866 3.582 2.068.5-.866Zm-7.164-4.136-3.583-2.068-.5.866 3.583 2.068.5-.866Zm-7.165-4.136-3.582-2.068-.5.866 3.582 2.068.5-.866Zm-7.164-4.137-3.582-2.068-.5.866 3.582 2.068.5-.866Zm-7.165-4.136-3.582-2.068-.5.866 3.582 2.068.5-.866Zm-7.164-4.136-3.582-2.069-.5.866 3.582 2.069.5-.866Zm-7.164-4.137-3.583-2.068-.5.866 3.583 2.068.5-.866Zm-7.165-4.136-3.582-2.068-.5.866 3.582 2.068.5-.866Zm-7.164-4.136-3.582-2.069-.5.866 3.582 2.069.5-.866Zm-9.206-4.738 5.774 10 5.773-10H345.75Zm79.309 44.634-1.792-1.034-1 1.732 1.792 1.034 1-1.732Zm-5.374-3.102-3.582-2.068-1 1.732 3.582 2.068 1-1.732Zm-7.164-4.137-3.582-2.068-1 1.732 3.582 2.068 1-1.732Zm-7.164-4.136-3.583-2.068-1 1.732 3.583 2.068 1-1.732Zm-7.165-4.136-3.582-2.068-1 1.732 3.582 2.068 1-1.732Zm-7.164-4.137-3.582-2.068-1 1.732 3.582 2.068 1-1.732Zm-7.165-4.136-3.582-2.068-1 1.732 3.582 2.068 1-1.732Zm-7.164-4.136-3.582-2.069-1 1.732 3.582 2.069 1-1.732Zm-7.164-4.137-3.583-2.068-1 1.732 3.583 2.068 1-1.732Zm-7.165-4.136-3.582-2.068-1 1.732 3.582 2.068 1-1.732Zm-7.164-4.136-3.582-2.069-1 1.732 3.582 2.069 1-1.732Z" fill="#0FFD6A"/><defs><filter id="a" x="195" y="87" width="164" height="164" filterUnits="userSpaceOnUse" color-interpolation-filters="sRGB"><feFlood flood-opacity="0" result="BackgroundImageFix"/><feColorMatrix in="SourceAlpha" values="0 0 0 0 0 0 0 0 0 0 0 0 0 0 0 0 0 0 127 0" result="hardAlpha"/><feOffset/><feGaussianBlur stdDeviation="4"/><feComposite in2="hardAlpha" operator="out"/><feColorMatrix values="0 0 0 0 0.0588235 0 0 0 0 0.992157 0 0 0 0 0.415686 0 0 0 1 0"/><feBlend in2="BackgroundImageFix" result="effect1_dropShadow_9653_23443"/><feBlend in="SourceGraphic" in2="effect1_dropShadow_9653_23443" result="shape"/></filter><filter id="b" x="73" y="51" width="64" height="64" filterUnits="userSpaceOnUse" color-interpolation-filters="sRGB"><feFlood flood-opacity="0" result="BackgroundImageFix"/><feColorMatrix in="SourceAlpha" values="0 0 0 0 0 0 0 0 0 0 0 0 0 0 0 0 0 0 127 0" result="hardAlpha"/><feOffset/><feGaussianBlur stdDeviation="2"/><feComposite in2="hardAlpha" operator="out"/><feColorMatrix values="0 0 0 0 0.0588235 0 0 0 0 0.992157 0 0 0 0 0.415686 0 0 0 1 0"/><feBlend in2="BackgroundImageFix" result="effect1_dropShadow_9653_23443"/><feBlend in="SourceGraphic" in2="effect1_dropShadow_9653_23443" result="shape"/></filter><filter id="c" x="73" y="222" width="64" height="64" filterUnits="userSpaceOnUse" color-interpolation-filters="sRGB"><feFlood flood-opacity="0" result="BackgroundImageFix"/><feColorMatrix in="SourceAlpha" values="0 0 0 0 0 0 0 0 0 0 0 0 0 0 0 0 0 0 127 0" result="hardAlpha"/><feOffset/><feGaussianBlur stdDeviation="2"/><feComposite in2="hardAlpha" operator="out"/><feColorMatrix values="0 0 0 0 0.0588235 0 0 0 0 0.992157 0 0 0 0 0.415686 0 0 0 1 0"/><feBlend in2="BackgroundImageFix" result="effect1_dropShadow_9653_23443"/><feBlend in="SourceGraphic" in2="effect1_dropShadow_9653_23443" result="shape"/></filter><filter id="d" x="417.809" y="51" width="64" height="64" filterUnits="userSpaceOnUse" color-interpolation-filters="sRGB"><feFlood flood-opacity="0" result="BackgroundImageFix"/><feColorMatrix in="SourceAlpha" values="0 0 0 0 0 0 0 0 0 0 0 0 0 0 0 0 0 0 127 0" result="hardAlpha"/><feOffset/><feGaussianBlur stdDeviation="2"/><feComposite in2="hardAlpha" operator="out"/><feColorMatrix values="0 0 0 0 0.0588235 0 0 0 0 0.992157 0 0 0 0 0.415686 0 0 0 1 0"/><feBlend in2="BackgroundImageFix" result="effect1_dropShadow_9653_23443"/><feBlend in="SourceGraphic" in2="effect1_dropShadow_9653_23443" result="shape"/></filter><filter id="e" x="417.809" y="222" width="64" height="64" filterUnits="userSpaceOnUse" color-interpolation-filters="sRGB"><feFlood flood-opacity="0" result="BackgroundImageFix"/><feColorMatrix in="SourceAlpha" values="0 0 0 0 0 0 0 0 0 0 0 0 0 0 0 0 0 0 127 0" result="hardAlpha"/><feOffset/><feGaussianBlur stdDeviation="2"/><feComposite in2="hardAlpha" operator="out"/><feColorMatrix values="0 0 0 0 0.0588235 0 0 0 0 0.992157 0 0 0 0 0.415686 0 0 0 1 0"/><feBlend in2="BackgroundImageFix" result="effect1_dropShadow_9653_23443"/><feBlend in="SourceGraphic" in2="effect1_dropShadow_9653_23443" result="shape"/></filter></defs></svg>