<svg width="555" height="336" fill="none" xmlns="http://www.w3.org/2000/svg"><rect width="555" height="336" rx="4" fill="#1E2229"/><path d="M121.191 183.014v-.251h-.25v.251h.25Zm20.021 0h.25v-.251h-.25v.251Zm-20.021 25.91.249.028.002-.014v-.014h-.251Zm-3.032 4.792-.098-.23.098.23Zm26.042.161.1-.229-.1.229Zm-2.989-3.882h-.25v.014l.001.014.249-.028Zm-20.021-26.731h20.021v-.501h-20.021v.501Zm.251 25.66v-25.91h-.501v25.91h.501Zm-.499-.028a4.696 4.696 0 0 0-.029.519h.5c0-.157.009-.311.026-.463l-.497-.056Zm-.029.519c0 1.79-1.178 3.363-2.853 4.071l.195.461c1.833-.775 3.158-2.514 3.158-4.532h-.5Zm-2.853 4.071c-11.935 5.044-20.311 16.86-20.311 30.633h.5c0-13.565 8.25-25.204 20.006-30.172l-.195-.461ZM97.75 244.119c0 18.36 14.883 33.243 33.242 33.243v-.5c-18.083 0-32.742-14.66-32.742-32.743h-.5Zm33.242 33.243c18.36 0 33.243-14.883 33.243-33.243h-.5c0 18.083-14.66 32.743-32.743 32.743v.5Zm33.243-33.243c0-13.627-8.2-25.339-19.934-30.471l-.2.458c11.558 5.056 19.634 16.592 19.634 30.013h.5Zm-19.934-30.471c-1.539-.673-2.659-2.065-2.84-3.681l-.498.056c.203 1.815 1.455 3.347 3.138 4.083l.2-.458Zm-3.339-30.634v26.981h.5v-26.981h-.5Z" fill="#fff"/><path fill-rule="evenodd" clip-rule="evenodd" d="M138.711 208.796c.002.082.004.163.004.245v.437c0 3.593 2.471 6.641 5.676 8.264 9.698 4.911 16.346 14.972 16.346 26.586 0 16.447-13.333 29.78-29.781 29.78-16.447 0-29.78-13.333-29.78-29.78 0-11.796 6.858-21.99 16.804-26.813 3.15-1.527 5.605-4.452 5.715-7.927v-8.055h15.016v7.263Z" fill="#0FFD6A"/><path d="M138.711 208.796h-.412v.014l.412-.014Zm5.68 8.946.186-.367-.186.367Zm-26.411-.227.18.37-.18-.37Zm5.715-7.927.412.013v-.013h-.412Zm0-8.055v-.411h-.411v.411h.411Zm15.016 0h.411v-.411h-.411v.411Zm.415 7.508a7.4 7.4 0 0 0-.004-.258l-.823.027c.003.076.004.153.004.231h.823Zm0 .437v-.437h-.823v.437h.823Zm5.451 7.897c-3.111-1.575-5.451-4.504-5.451-7.897h-.823c0 3.792 2.603 6.961 5.903 8.632l.371-.735Zm16.572 26.953c0-11.775-6.741-21.975-16.572-26.953l-.371.735c9.564 4.843 16.119 14.765 16.119 26.218h.824Zm-30.193 30.192c16.675 0 30.193-13.518 30.193-30.192h-.824c0 16.22-13.149 29.369-29.369 29.369v.823Zm-30.192-30.192c0 16.674 13.518 30.192 30.192 30.192v-.823c-16.22 0-29.369-13.149-29.369-29.369h-.823Zm17.037-27.183c-10.083 4.888-17.037 15.223-17.037 27.183h.823c0-11.633 6.763-21.686 16.573-26.443l-.359-.74Zm5.483-7.57c-.105 3.28-2.429 6.089-5.483 7.57l.359.74c3.245-1.573 5.83-4.614 5.947-8.284l-.823-.026Zm.823.013v-8.055h-.823v8.055h.823Zm-.412-7.643h7.512v-.823h-7.512v.823Zm7.512 0h7.504v-.823h-7.504v.823Zm7.092-.412v7.263h.823v-7.263h-.823Z" fill="#000"/><rect x="116.188" y="170" width="30.031" height="13.013" rx="6.507" stroke="#fff" stroke-width=".501"/><ellipse cx="131.203" cy="201.281" rx="7.508" ry="1.251" fill="#0FFD6A" stroke="#000" stroke-width=".823"/><g clip-path="url(#a)" fill="#000"><path d="M127.744 234.214c-.412-.059-.432-.078-.236-.098.373-.059 1.237.02 1.845.157 1.414.334 2.689 1.197 4.044 2.709l.353.412.51-.079c2.179-.353 4.417-.078 6.281.785.511.236 1.315.707 1.414.825.039.039.098.294.137.549.137.923.078 1.61-.216 2.14-.157.294-.157.373-.059.628.079.196.314.334.53.334.471 0 .962-.746 1.197-1.786l.099-.413.176.197c1.001 1.118 1.786 2.669 1.904 3.768l.039.295-.176-.256c-.295-.451-.569-.745-.942-1.001-.668-.451-1.374-.588-3.239-.687-1.688-.098-2.65-.235-3.592-.549-1.609-.53-2.434-1.217-4.338-3.749-.844-1.119-1.374-1.727-1.904-2.238-1.158-1.119-2.316-1.707-3.827-1.943Z"/><path d="M142.365 236.708c.039-.746.137-1.237.353-1.688.079-.177.157-.334.177-.334.019 0-.02.137-.079.294-.157.432-.176 1.041-.078 1.728.137.883.196 1.001 1.138 1.963.432.451.942 1.02 1.139 1.256l.333.432-.333-.315c-.413-.392-1.355-1.138-1.571-1.236-.137-.079-.157-.079-.255.02-.078.078-.098.196-.098.765-.02.883-.137 1.433-.432 2.002-.157.295-.176.236-.039-.098.098-.255.118-.373.118-1.217 0-1.708-.197-2.12-1.394-2.807a14.745 14.745 0 0 0-1.099-.569c-.314-.137-.55-.255-.53-.255.039-.039 1.197.294 1.649.491.687.274.805.294.883.274.059-.059.098-.216.118-.706Zm-13.818 2.922c-.825-1.138-1.354-2.905-1.237-4.22l.04-.412.196.039c.353.059.962.295 1.256.471.785.471 1.138 1.119 1.472 2.729a15.1 15.1 0 0 0 .295 1.197c.098.294.471.981.785 1.413.216.314.078.471-.413.432-.745-.078-1.746-.765-2.394-1.649Zm12.816 8.539c-3.886-1.57-5.26-2.925-5.26-5.221 0-.334.019-.609.019-.609.02 0 .157.118.334.256.785.628 1.668.902 4.122 1.256 1.433.216 2.257.373 3.003.628 2.375.785 3.847 2.394 4.2 4.573.098.628.039 1.826-.118 2.454-.137.49-.53 1.393-.628 1.413-.019 0-.059-.098-.059-.255-.039-.825-.451-1.61-1.138-2.218-.824-.707-1.884-1.237-4.475-2.277Zm-2.747.649a4.616 4.616 0 0 0-.196-.825l-.098-.294.176.216c.256.294.452.647.629 1.138.137.373.137.491.137 1.099 0 .589-.02.726-.137 1.06-.197.53-.432.903-.825 1.315-.706.726-1.629 1.119-2.944 1.296-.236.019-.903.078-1.492.117-1.472.079-2.453.236-3.337.55-.117.039-.235.079-.255.059-.039-.039.569-.393 1.06-.628.687-.334 1.394-.511 2.944-.785.766-.118 1.551-.275 1.747-.354 1.943-.608 2.905-2.119 2.591-3.964Z"/><path d="M140.404 251.977c-.511-1.119-.628-2.179-.353-3.18.039-.098.078-.196.117-.196.04 0 .157.058.275.137.236.157.726.432 1.983 1.119 1.589.863 2.492 1.531 3.12 2.296.55.668.884 1.433 1.041 2.375.098.53.039 1.806-.098 2.336-.432 1.668-1.414 3.003-2.847 3.769a2.737 2.737 0 0 1-.412.196c-.019 0 .059-.196.177-.432.471-1.001.53-1.963.177-3.042-.216-.668-.668-1.472-1.571-2.827-1.079-1.57-1.334-1.982-1.609-2.551Zm-14.627 6.003c1.453-1.217 3.239-2.08 4.888-2.355.706-.118 1.884-.079 2.532.098 1.04.275 1.982.864 2.473 1.59.471.707.687 1.315.903 2.669.078.53.176 1.08.196 1.198.157.706.471 1.256.864 1.55.608.452 1.668.471 2.708.079.177-.059.334-.118.334-.098.039.039-.491.392-.844.569-.491.255-.883.334-1.413.334-.942 0-1.747-.491-2.395-1.473-.137-.196-.412-.765-.647-1.295-.687-1.59-1.041-2.061-1.846-2.591-.706-.451-1.609-.549-2.296-.216-.903.432-1.138 1.59-.51 2.297.255.294.726.53 1.118.589a1.198 1.198 0 0 0 1.355-1.198c0-.471-.177-.746-.648-.962-.628-.274-1.315.04-1.295.648 0 .255.117.412.373.53.157.079.157.079.039.059-.569-.118-.707-.824-.255-1.276.549-.549 1.707-.314 2.1.452.157.314.177.942.039 1.334-.334.864-1.276 1.315-2.237 1.06-.648-.176-.923-.353-1.708-1.158-1.374-1.413-1.904-1.688-3.867-1.982l-.373-.059.412-.393Z"/><path fill-rule="evenodd" clip-rule="evenodd" d="M115.453 226.401c4.574 5.554 11.62 14.191 11.973 14.662.295.392.177.765-.314 1.04-.274.157-.844.314-1.118.314-.314 0-.687-.157-.943-.412-.176-.177-.942-1.296-2.669-3.985a263.977 263.977 0 0 0-2.453-3.788c-.079-.039-.079-.039 2.316 4.24 1.511 2.689 2.002 3.651 2.002 3.768 0 .256-.079.393-.393.746-.53.589-.765 1.257-.942 2.65-.196 1.551-.726 2.65-2.238 4.515-.883 1.099-1.02 1.295-1.236 1.746-.275.55-.353.864-.393 1.571-.039.746.04 1.217.255 1.923.197.628.413 1.041.943 1.845.451.707.726 1.237.726 1.433 0 .157.039.157.746 0 1.688-.392 3.081-1.06 3.847-1.884.471-.51.589-.785.589-1.492 0-.451-.02-.549-.138-.824-.196-.432-.569-.785-1.374-1.335-1.06-.726-1.511-1.315-1.629-2.1-.098-.668.02-1.119.609-2.356.608-1.275.765-1.805.863-3.101.059-.824.157-1.158.393-1.413.255-.275.471-.373 1.079-.451 1.001-.138 1.649-.393 2.159-.884.452-.412.648-.824.668-1.433l.019-.451-.255-.275c-.922-1.06-13.7-15.113-13.759-15.113-.02 0 .294.373.667.844Zm6.026 27.911a.811.811 0 0 0-.255-1.08c-.334-.216-.844-.118-.844.177 0 .078.039.157.157.196.177.098.196.196.059.412-.137.216-.137.412.039.55.275.216.648.098.844-.255Zm7.947-10.325c-.471.138-.922.648-1.06 1.158-.078.315-.039.884.098 1.06.216.275.413.354.962.354 1.08 0 2.002-.471 2.1-1.041.098-.471-.314-1.118-.883-1.413-.294-.157-.903-.216-1.217-.118Zm1.256.982c.157-.236.098-.491-.196-.668-.53-.333-1.335-.058-1.335.452 0 .255.412.53.805.53.255 0 .609-.157.726-.314Z"/></g><circle cx="143.216" cy="227.557" r="4.505" fill="#000"/><circle cx="134.206" cy="216.548" r="3.003" fill="#000"/><circle cx="110.682" cy="251.085" r="2.503" fill="#000"/><path d="M219.176 183.014v-.251h-.25v.251h.25Zm20.02 0h.251v-.251h-.251v.251Zm-20.02 25.91.248.028.002-.014v-.014h-.25Zm-3.033 4.792-.097-.23.097.23Zm26.042.161.1-.229-.1.229Zm-2.989-3.882h-.25v.014l.002.014.248-.028Zm-20.02-26.731h20.02v-.501h-20.02v.501Zm.25 25.66v-25.91h-.5v25.91h.5Zm-.499-.028a4.696 4.696 0 0 0-.029.519h.501c0-.157.008-.311.025-.463l-.497-.056Zm-.029.519c0 1.79-1.178 3.363-2.852 4.071l.195.461c1.833-.775 3.158-2.514 3.158-4.532h-.501Zm-2.852 4.071c-11.936 5.044-20.312 16.86-20.312 30.633h.501c0-13.565 8.249-25.204 20.006-30.172l-.195-.461Zm-20.312 30.633c0 18.36 14.883 33.243 33.243 33.243v-.5c-18.083 0-32.742-14.66-32.742-32.743h-.501Zm33.243 33.243c18.359 0 33.242-14.883 33.242-33.243h-.5c0 18.083-14.659 32.743-32.742 32.743v.5Zm33.242-33.243c0-13.627-8.199-25.339-19.934-30.471l-.2.458c11.558 5.056 19.634 16.592 19.634 30.013h.5Zm-19.934-30.471c-1.539-.673-2.659-2.065-2.84-3.681l-.497.056c.203 1.815 1.454 3.347 3.137 4.083l.2-.458Zm-3.339-30.634v26.981h.501v-26.981h-.501Z" fill="#fff"/><path fill-rule="evenodd" clip-rule="evenodd" d="M209.382 221.864c-6.266 5.46-10.226 13.498-10.226 22.462 0 16.447 13.333 29.78 29.781 29.78 16.447 0 29.781-13.333 29.781-29.78 0-8.964-3.96-17.002-10.226-22.462h-39.11Z" fill="#0FFD6A"/><path d="M209.382 221.864v-.411h-.154l-.116.101.27.31Zm39.11 0 .27-.31-.116-.101h-.154v.411Zm-48.924 22.462c0-8.84 3.904-16.767 10.084-22.151l-.54-.621c-6.352 5.534-10.367 13.684-10.367 22.772h.823Zm29.369 29.369c-16.22 0-29.369-13.149-29.369-29.369h-.823c0 16.674 13.517 30.192 30.192 30.192v-.823Zm29.369-29.369c0 16.22-13.149 29.369-29.369 29.369v.823c16.675 0 30.192-13.518 30.192-30.192h-.823Zm-10.085-22.151c6.18 5.384 10.085 13.311 10.085 22.151h.823c0-9.088-4.015-17.238-10.367-22.772l-.541.621Zm.271-.722h-39.11v.823h39.11v-.823Z" fill="#000"/><rect x="214.172" y="170" width="30.031" height="13.013" rx="6.507" stroke="#fff" stroke-width=".501"/><ellipse cx="228.992" cy="221.863" rx="19.758" ry="1.646" fill="#0FFD6A" stroke="#000" stroke-width=".823"/><g clip-path="url(#b)" fill="#000"><path d="M225.726 234.214c-.412-.059-.432-.078-.235-.098.373-.059 1.236.02 1.845.157 1.413.334 2.689 1.197 4.043 2.709l.353.412.511-.079c2.179-.353 4.416-.078 6.281.785.51.236 1.315.707 1.413.825.039.039.098.294.137.549.138.923.079 1.61-.216 2.14-.157.294-.157.373-.058.628.078.196.314.334.53.334.471 0 .961-.746 1.197-1.786l.098-.413.177.197c1.001 1.118 1.786 2.669 1.904 3.768l.039.295-.177-.256c-.294-.451-.569-.745-.942-1.001-.667-.451-1.374-.588-3.239-.687-1.688-.098-2.649-.235-3.592-.549-1.609-.53-2.433-1.217-4.337-3.749-.844-1.119-1.374-1.727-1.904-2.238-1.158-1.119-2.316-1.707-3.828-1.943Z"/><path d="M240.347 236.708c.039-.746.138-1.237.354-1.688.078-.177.157-.334.176-.334.02 0-.019.137-.078.294-.157.432-.177 1.041-.079 1.728.138.883.196 1.001 1.139 1.963.431.451.942 1.02 1.138 1.256l.334.432-.334-.315c-.412-.392-1.354-1.138-1.57-1.236-.138-.079-.157-.079-.255.02-.079.078-.099.196-.099.765-.019.883-.137 1.433-.431 2.002-.157.295-.177.236-.04-.098.099-.255.118-.373.118-1.217 0-1.708-.196-2.12-1.393-2.807a14.764 14.764 0 0 0-1.1-.569c-.314-.137-.549-.255-.53-.255.04-.039 1.198.294 1.649.491.687.274.805.294.883.274.059-.059.099-.216.118-.706Zm-13.817 2.922c-.824-1.138-1.354-2.905-1.236-4.22l.039-.412.196.039c.354.059.962.295 1.256.471.786.471 1.139 1.119 1.473 2.729.098.471.235 1.02.294 1.197.098.294.471.981.785 1.413.216.314.079.471-.412.432-.746-.078-1.747-.765-2.395-1.649Zm12.818 8.539c-3.886-1.57-5.26-2.925-5.26-5.221 0-.334.02-.609.02-.609.019 0 .157.118.333.256.785.628 1.669.902 4.122 1.256 1.433.216 2.257.373 3.003.628 2.375.785 3.847 2.394 4.201 4.573.098.628.039 1.826-.118 2.454-.138.49-.53 1.393-.628 1.413-.02 0-.059-.098-.059-.255-.039-.825-.452-1.61-1.139-2.218-.824-.707-1.884-1.237-4.475-2.277Zm-2.749.649a4.693 4.693 0 0 0-.197-.825l-.098-.294.177.216c.255.294.451.647.628 1.138.137.373.137.491.137 1.099 0 .589-.019.726-.137 1.06-.196.53-.432.903-.824 1.315-.707.726-1.63 1.119-2.945 1.296-.235.019-.903.078-1.491.117-1.472.079-2.454.236-3.337.55-.118.039-.236.079-.255.059-.04-.039.569-.393 1.06-.628.687-.334 1.393-.511 2.944-.785.765-.118 1.55-.275 1.747-.354 1.943-.608 2.905-2.119 2.591-3.964Z"/><path d="M238.386 251.977c-.51-1.119-.628-2.179-.353-3.18.039-.098.078-.196.118-.196.039 0 .157.058.274.137.236.157.727.432 1.983 1.119 1.59.863 2.493 1.531 3.121 2.296.549.668.883 1.433 1.04 2.375.098.53.039 1.806-.098 2.336-.432 1.668-1.413 3.003-2.846 3.769a2.841 2.841 0 0 1-.412.196c-.02 0 .059-.196.176-.432.471-1.001.53-1.963.177-3.042-.216-.668-.667-1.472-1.57-2.827-1.08-1.57-1.335-1.982-1.61-2.551Zm-14.626 6.003c1.452-1.217 3.238-2.08 4.887-2.355.707-.118 1.885-.079 2.532.098 1.041.275 1.983.864 2.473 1.59.471.707.687 1.315.903 2.669.079.53.177 1.08.197 1.198.157.706.471 1.256.863 1.55.609.452 1.669.471 2.709.079.176-.059.334-.118.334-.098.039.039-.491.392-.844.569-.491.255-.884.334-1.414.334-.942 0-1.747-.491-2.394-1.473-.138-.196-.413-.765-.648-1.295-.687-1.59-1.04-2.061-1.845-2.591-.707-.451-1.61-.549-2.297-.216-.902.432-1.138 1.59-.51 2.297.255.294.726.53 1.119.589a1.198 1.198 0 0 0 1.354-1.198c0-.471-.176-.746-.647-.962-.629-.274-1.316.04-1.296.648 0 .255.118.412.373.53.157.079.157.079.039.059-.569-.118-.706-.824-.255-1.276.55-.549 1.708-.314 2.1.452.157.314.177.942.04 1.334-.334.864-1.276 1.315-2.238 1.06-.648-.176-.923-.353-1.708-1.158-1.374-1.413-1.904-1.688-3.866-1.982l-.373-.059.412-.393Z"/><path fill-rule="evenodd" clip-rule="evenodd" d="M213.436 226.401c4.573 5.554 11.62 14.191 11.973 14.662.294.392.177.765-.314 1.04-.275.157-.844.314-1.119.314-.314 0-.687-.157-.942-.412-.177-.177-.942-1.296-2.669-3.985a258.66 258.66 0 0 0-2.454-3.788c-.079-.039-.079-.039 2.316 4.24 1.511 2.689 2.002 3.651 2.002 3.768 0 .256-.078.393-.392.746-.53.589-.766 1.257-.943 2.65-.196 1.551-.726 2.65-2.237 4.515-.883 1.099-1.021 1.295-1.237 1.746-.274.55-.353.864-.392 1.571-.04.746.039 1.217.255 1.923.196.628.412 1.041.942 1.845.451.707.726 1.237.726 1.433 0 .157.04.157.746 0 1.688-.392 3.082-1.06 3.847-1.884.471-.51.589-.785.589-1.492 0-.451-.02-.549-.137-.824-.197-.432-.57-.785-1.374-1.335-1.06-.726-1.512-1.315-1.629-2.1-.099-.668.019-1.119.608-2.356.609-1.275.766-1.805.864-3.101.059-.824.157-1.158.392-1.413.255-.275.471-.373 1.08-.451 1.001-.138 1.649-.393 2.159-.884.451-.412.648-.824.667-1.433l.02-.451-.255-.275c-.923-1.06-13.701-15.113-13.76-15.113-.019 0 .295.373.668.844Zm6.026 27.911a.81.81 0 0 0-.256-1.08c-.333-.216-.844-.118-.844.177 0 .078.04.157.157.196.177.098.197.196.059.412-.137.216-.137.412.04.55.274.216.647.098.844-.255Zm7.947-10.325c-.471.138-.922.648-1.059 1.158-.079.315-.04.884.098 1.06.216.275.412.354.961.354 1.08 0 2.003-.471 2.101-1.041.098-.471-.314-1.118-.884-1.413-.294-.157-.902-.216-1.217-.118Zm1.257.982c.157-.236.098-.491-.197-.668-.53-.333-1.334-.058-1.334.452 0 .255.412.53.804.53.256 0 .609-.157.727-.314Z"/></g><circle cx="247.102" cy="233.388" r="2.47" fill="#000"/><circle cx="208.663" cy="251.085" r="2.503" fill="#000"/><path d="M317.156 183.014v-.251h-.25v.251h.25Zm20.021 0h.25v-.251h-.25v.251Zm-20.021 25.946.249.026.002-.013v-.013h-.251Zm-3.028 4.756-.098-.23.098.23Zm26.042.161.1-.229-.1.229Zm-2.993-3.918h-.25v.013l.001.012.249-.025Zm-20.021-26.695h20.021v-.501h-20.021v.501Zm.251 25.696v-25.946h-.501v25.946h.501Zm-.5-.025a4.747 4.747 0 0 0-.024.48h.5c0-.145.008-.288.022-.429l-.498-.051Zm-.024.48c0 1.79-1.178 3.363-2.853 4.071l.195.461c1.833-.775 3.158-2.514 3.158-4.532h-.5Zm-2.853 4.071c-11.935 5.044-20.312 16.86-20.312 30.633h.501c0-13.565 8.249-25.204 20.006-30.172l-.195-.461Zm-20.312 30.633c0 18.36 14.884 33.243 33.243 33.243v-.5c-18.083 0-32.742-14.66-32.742-32.743h-.501Zm33.243 33.243c18.36 0 33.243-14.883 33.243-33.243h-.501c0 18.083-14.659 32.743-32.742 32.743v.5Zm33.243-33.243c0-13.627-8.2-25.339-19.934-30.471l-.201.458c11.559 5.056 19.634 16.592 19.634 30.013h.501Zm-19.934-30.471c-1.551-.678-2.675-2.084-2.844-3.715l-.498.051c.19 1.832 1.447 3.381 3.141 4.122l.201-.458Zm-3.343-30.634v26.945h.5v-26.945h-.5Z" fill="#fff"/><path fill-rule="evenodd" clip-rule="evenodd" d="M334.676 209.51v-7.977H319.66v7.809c0 3.583-2.495 6.61-5.719 8.173-9.946 4.823-16.804 15.017-16.804 26.813 0 16.447 13.333 29.78 29.78 29.78 16.448 0 29.781-13.333 29.781-29.78 0-11.614-6.648-21.675-16.346-26.586-3.195-1.618-5.662-4.653-5.676-8.232Z" fill="#0FFD6A"/><path d="M334.676 201.533h.411v-.411h-.411v.411Zm0 7.977h-.412v.002l.412-.002Zm-15.016-7.977v-.411h-.411v.411h.411Zm0 7.476.412.002v-.002h-.412Zm-5.719 8.506-.179-.37.179.37Zm26.411.227.186-.367-.186.367Zm-6.088-16.209v7.977h.823v-7.977h-.823Zm-7.096.412h7.508v-.823h-7.508v.823Zm-7.508 0h7.508v-.823h-7.508v.823Zm.412 7.064v-7.476h-.823v7.476h.823Zm-.823-.002v.034h.823v-.03l-.823-.004Zm0 .034v.301h.823v-.301h-.823Zm0 .301c0 3.38-2.361 6.287-5.487 7.803l.359.74c3.32-1.609 5.951-4.758 5.951-8.543h-.823Zm-5.487 7.803c-10.083 4.888-17.037 15.223-17.037 27.183h.823c0-11.633 6.763-21.686 16.573-26.443l-.359-.74Zm-17.037 27.183c0 16.674 13.518 30.192 30.192 30.192v-.823c-16.22 0-29.369-13.149-29.369-29.369h-.823Zm30.192 30.192c16.675 0 30.193-13.518 30.193-30.192h-.824c0 16.22-13.149 29.369-29.369 29.369v.823Zm30.193-30.192c0-11.775-6.741-21.975-16.572-26.953l-.372.735c9.565 4.843 16.12 14.765 16.12 26.218h.824Zm-16.572-26.953c-3.102-1.571-5.437-4.486-5.451-7.867l-.823.004c.015 3.777 2.613 6.932 5.902 8.598l.372-.735Z" fill="#000"/><rect x="312.152" y="170" width="30.031" height="13.013" rx="6.507" stroke="#fff" stroke-width=".501"/><ellipse cx="327.164" cy="201.281" rx="7.508" ry="1.251" fill="#0FFD6A" stroke="#000" stroke-width=".823"/><g clip-path="url(#c)" fill="#000"><path d="M323.707 234.214c-.412-.059-.432-.078-.236-.098.373-.059 1.237.02 1.845.157 1.413.334 2.689 1.197 4.044 2.709l.353.412.51-.079c2.179-.353 4.417-.078 6.281.785.511.236 1.315.707 1.413.825.04.039.099.294.138.549.137.923.078 1.61-.216 2.14-.157.294-.157.373-.059.628.079.196.314.334.53.334.471 0 .962-.746 1.197-1.786l.098-.413.177.197c1.001 1.118 1.786 2.669 1.904 3.768l.039.295-.176-.256c-.295-.451-.57-.745-.942-1.001-.668-.451-1.374-.588-3.239-.687-1.688-.098-2.65-.235-3.592-.549-1.61-.53-2.434-1.217-4.338-3.749-.844-1.119-1.374-1.727-1.904-2.238-1.158-1.119-2.316-1.707-3.827-1.943Z"/><path d="M338.328 236.708c.039-.746.137-1.237.353-1.688.079-.177.157-.334.177-.334.019 0-.02.137-.079.294-.157.432-.177 1.041-.078 1.728.137.883.196 1.001 1.138 1.963.432.451.942 1.02 1.138 1.256l.334.432-.334-.315c-.412-.392-1.354-1.138-1.57-1.236-.137-.079-.157-.079-.255.02-.078.078-.098.196-.098.765-.02.883-.137 1.433-.432 2.002-.157.295-.177.236-.039-.098.098-.255.118-.373.118-1.217 0-1.708-.197-2.12-1.394-2.807a14.745 14.745 0 0 0-1.099-.569c-.314-.137-.55-.255-.53-.255.039-.039 1.197.294 1.649.491.687.274.804.294.883.274.059-.059.098-.216.118-.706Zm-13.817 2.922c-.825-1.138-1.355-2.905-1.237-4.22l.039-.412.197.039c.353.059.961.295 1.256.471.785.471 1.138 1.119 1.472 2.729.098.471.236 1.02.294 1.197.099.294.471.981.786 1.413.215.314.078.471-.413.432-.746-.078-1.747-.765-2.394-1.649Zm12.818 8.539c-3.887-1.57-5.261-2.925-5.261-5.221 0-.334.02-.609.02-.609.02 0 .157.118.334.256.785.628 1.668.902 4.122 1.256 1.432.216 2.257.373 3.003.628 2.375.785 3.847 2.394 4.2 4.573.098.628.039 1.826-.118 2.454-.137.49-.53 1.393-.628 1.413-.019 0-.059-.098-.059-.255-.039-.825-.451-1.61-1.138-2.218-.825-.707-1.884-1.237-4.475-2.277Zm-2.747.649a4.616 4.616 0 0 0-.196-.825l-.098-.294.176.216c.255.294.452.647.628 1.138.138.373.138.491.138 1.099 0 .589-.02.726-.138 1.06a3.54 3.54 0 0 1-.824 1.315c-.707.726-1.629 1.119-2.944 1.296-.236.019-.903.078-1.492.117-1.472.079-2.453.236-3.337.55-.118.039-.235.079-.255.059-.039-.039.569-.393 1.06-.628.687-.334 1.394-.511 2.944-.785.766-.118 1.551-.275 1.747-.354 1.943-.608 2.905-2.119 2.591-3.964Z"/><path d="M336.368 251.977c-.511-1.119-.628-2.179-.354-3.18.04-.098.079-.196.118-.196.039 0 .157.058.275.137.235.157.726.432 1.982 1.119 1.59.863 2.493 1.531 3.121 2.296.55.668.883 1.433 1.041 2.375.098.53.039 1.806-.099 2.336-.431 1.668-1.413 3.003-2.846 3.769a2.788 2.788 0 0 1-.412.196c-.02 0 .059-.196.177-.432.471-1.001.53-1.963.176-3.042-.215-.668-.667-1.472-1.57-2.827-1.079-1.57-1.335-1.982-1.609-2.551Zm-14.625 6.003c1.453-1.217 3.239-2.08 4.888-2.355.706-.118 1.884-.079 2.532.098 1.04.275 1.982.864 2.473 1.59.471.707.687 1.315.903 2.669.078.53.176 1.08.196 1.198.157.706.471 1.256.864 1.55.608.452 1.668.471 2.708.079.177-.059.334-.118.334-.098.039.039-.491.392-.844.569-.491.255-.883.334-1.413.334-.942 0-1.747-.491-2.395-1.473-.137-.196-.412-.765-.648-1.295-.687-1.59-1.04-2.061-1.845-2.591-.706-.451-1.609-.549-2.296-.216-.903.432-1.139 1.59-.51 2.297.255.294.726.53 1.118.589a1.198 1.198 0 0 0 1.355-1.198c0-.471-.177-.746-.648-.962-.628-.274-1.315.04-1.296.648 0 .255.118.412.373.53.157.079.157.079.04.059-.57-.118-.707-.824-.256-1.276.55-.549 1.708-.314 2.101.452.157.314.176.942.039 1.334-.334.864-1.276 1.315-2.238 1.06-.647-.176-.922-.353-1.707-1.158-1.374-1.413-1.904-1.688-3.867-1.982l-.373-.059.412-.393Z"/><path fill-rule="evenodd" clip-rule="evenodd" d="M311.416 226.401c4.574 5.554 11.62 14.191 11.973 14.662.295.392.177.765-.314 1.04-.274.157-.844.314-1.118.314-.315 0-.687-.157-.943-.412-.176-.177-.942-1.296-2.669-3.985a249.184 249.184 0 0 0-2.454-3.788c-.078-.039-.078-.039 2.317 4.24 1.511 2.689 2.002 3.651 2.002 3.768 0 .256-.079.393-.393.746-.53.589-.765 1.257-.942 2.65-.196 1.551-.726 2.65-2.238 4.515-.883 1.099-1.02 1.295-1.236 1.746-.275.55-.354.864-.393 1.571-.039.746.039 1.217.255 1.923.197.628.413 1.041.943 1.845.451.707.726 1.237.726 1.433 0 .157.039.157.746 0 1.688-.392 3.081-1.06 3.847-1.884.471-.51.589-.785.589-1.492 0-.451-.02-.549-.138-.824-.196-.432-.569-.785-1.374-1.335-1.06-.726-1.511-1.315-1.629-2.1-.098-.668.02-1.119.609-2.356.608-1.275.765-1.805.863-3.101.059-.824.157-1.158.393-1.413.255-.275.471-.373 1.079-.451 1.001-.138 1.649-.393 2.159-.884.452-.412.648-.824.668-1.433l.019-.451-.255-.275c-.922-1.06-13.7-15.113-13.759-15.113-.02 0 .294.373.667.844Zm6.026 27.911a.811.811 0 0 0-.255-1.08c-.334-.216-.844-.118-.844.177 0 .078.039.157.157.196.177.098.196.196.059.412-.138.216-.138.412.039.55.275.216.648.098.844-.255Zm7.948-10.325c-.471.138-.923.648-1.06 1.158-.078.315-.039.884.098 1.06.216.275.412.354.962.354 1.08 0 2.002-.471 2.1-1.041.098-.471-.314-1.118-.883-1.413-.295-.157-.903-.216-1.217-.118Zm1.256.982c.157-.236.098-.491-.196-.668-.53-.333-1.335-.058-1.335.452 0 .255.412.53.805.53.255 0 .608-.157.726-.314Z"/></g><circle cx="338.712" cy="226.392" r="3.705" fill="#000"/><circle cx="331.304" cy="217.335" r="2.058" fill="#000"/><circle cx="324.339" cy="223.544" r="2.503" fill="#000"/><path d="M415.145 183.014v-.251h-.251v.251h.251Zm20.02 0h.25v-.251h-.25v.251Zm-20.02 25.91.248.028.002-.014v-.014h-.25Zm-3.033 4.792-.097-.23.097.23Zm26.042.161.1-.229-.1.229Zm-2.989-3.882h-.25v.014l.001.014.249-.028Zm-20.02-26.731h20.02v-.501h-20.02v.501Zm.25 25.66v-25.91h-.501v25.91h.501Zm-.499-.028a4.696 4.696 0 0 0-.029.519h.5c0-.157.009-.311.026-.463l-.497-.056Zm-.029.519c0 1.79-1.178 3.363-2.852 4.071l.194.461c1.834-.775 3.158-2.514 3.158-4.532h-.5Zm-2.852 4.071c-11.936 5.044-20.312 16.86-20.312 30.633h.5c0-13.565 8.25-25.204 20.006-30.172l-.194-.461Zm-20.312 30.633c0 18.36 14.883 33.243 33.243 33.243v-.5c-18.083 0-32.743-14.66-32.743-32.743h-.5Zm33.243 33.243c18.359 0 33.242-14.883 33.242-33.243h-.5c0 18.083-14.659 32.743-32.742 32.743v.5Zm33.242-33.243c0-13.627-8.2-25.339-19.934-30.471l-.2.458c11.558 5.056 19.634 16.592 19.634 30.013h.5Zm-19.934-30.471c-1.539-.673-2.659-2.065-2.84-3.681l-.498.056c.204 1.815 1.455 3.347 3.138 4.083l.2-.458Zm-3.339-30.634v26.981h.5v-26.981h-.5Z" fill="#fff"/><path fill-rule="evenodd" clip-rule="evenodd" d="M418.201 211.016h-.545v1.823c0 1.526-1.045 2.838-2.487 3.337-11.662 4.036-20.036 15.115-20.036 28.149 0 16.448 13.333 29.781 29.78 29.781 16.448 0 29.781-13.333 29.781-29.781 0-12.841-8.128-23.784-19.52-27.965-1.454-.534-2.502-1.871-2.502-3.421v-1.923h-.591a3.42 3.42 0 0 0-2.835-1.502h-8.264a3.321 3.321 0 0 0-2.781 1.502Z" fill="#0FFD6A"/><path d="M417.656 211.016v-.412h-.411v.412h.411Zm.545 0v.411h.222l.122-.185-.344-.226Zm-3.032 5.16-.135-.389.135.389Zm20.005.184.142-.387-.142.387Zm-2.502-5.344h.411v-.412h-.411v.412Zm-.591 0-.341.231.123.18h.218v-.411Zm-14.425.411h.545v-.823h-.545v.823Zm.412 1.412v-1.823h-.823v1.823h.823Zm-.823 0c0 1.33-.915 2.499-2.211 2.948l.269.777c1.588-.549 2.765-2.003 2.765-3.725h-.823Zm-2.211 2.948c-11.822 4.091-20.313 15.323-20.313 28.538h.823c0-12.854 8.258-23.78 19.759-27.761l-.269-.777Zm-20.313 28.538c0 16.675 13.518 30.193 30.192 30.193v-.824c-16.22 0-29.369-13.149-29.369-29.369h-.823Zm30.192 30.193c16.675 0 30.193-13.518 30.193-30.193h-.824c0 16.22-13.148 29.369-29.369 29.369v.824Zm30.193-30.193c0-13.019-8.241-24.113-19.79-28.352l-.284.773c11.235 4.123 19.25 14.916 19.25 27.579h.824Zm-19.79-28.352c-1.313-.482-2.233-1.678-2.233-3.034h-.823c0 1.743 1.176 3.221 2.772 3.807l.284-.773Zm-3.056-4.957v1.923h.823v-1.923h-.823Zm-.179.411h.591v-.823h-.591v.823Zm.34-.643a3.833 3.833 0 0 0-3.175-1.682v.823c1.037 0 1.951.523 2.494 1.322l.681-.463Zm-3.175-1.682h-8.264v.823h8.264v-.823Zm-8.264 0a3.735 3.735 0 0 0-3.126 1.688l.689.452a2.91 2.91 0 0 1 2.437-1.317v-.823Z" fill="#000"/><rect x="410.145" y="170" width="30.031" height="13.013" rx="6.507" stroke="#fff" stroke-width=".501"/><ellipse cx="425.16" cy="210.767" rx="7.508" ry="1.251" fill="#0FFD6A" stroke="#000" stroke-width=".823"/><g clip-path="url(#d)" fill="#000"><path d="M421.697 234.214c-.412-.059-.432-.078-.236-.098.373-.059 1.237.02 1.846.157 1.413.334 2.689 1.197 4.043 2.709l.353.412.511-.079c2.178-.353 4.416-.078 6.28.785.511.236 1.316.707 1.414.825.039.039.098.294.137.549.138.923.079 1.61-.216 2.14-.157.294-.157.373-.059.628.079.196.314.334.53.334.471 0 .962-.746 1.198-1.786l.098-.413.176.197c1.001 1.118 1.787 2.669 1.904 3.768l.04.295-.177-.256c-.295-.451-.569-.745-.942-1.001-.668-.451-1.374-.588-3.239-.687-1.688-.098-2.65-.235-3.592-.549-1.609-.53-2.434-1.217-4.338-3.749-.844-1.119-1.374-1.727-1.904-2.238-1.158-1.119-2.316-1.707-3.827-1.943Z"/><path d="M436.318 236.708c.039-.746.137-1.237.353-1.688.079-.177.157-.334.177-.334.02 0-.02.137-.079.294-.157.432-.176 1.041-.078 1.728.137.883.196 1.001 1.138 1.963.432.451.942 1.02 1.139 1.256l.333.432-.333-.315c-.412-.392-1.355-1.138-1.571-1.236-.137-.079-.157-.079-.255.02-.078.078-.098.196-.098.765-.019.883-.137 1.433-.432 2.002-.157.295-.176.236-.039-.098.098-.255.118-.373.118-1.217 0-1.708-.196-2.12-1.394-2.807a14.553 14.553 0 0 0-1.099-.569c-.314-.137-.549-.255-.53-.255.039-.039 1.197.294 1.649.491.687.274.805.294.883.274.059-.059.098-.216.118-.706Zm-13.814 2.922c-.824-1.138-1.354-2.905-1.237-4.22l.04-.412.196.039c.353.059.962.295 1.256.471.785.471 1.138 1.119 1.472 2.729a15.1 15.1 0 0 0 .295 1.197c.098.294.471.981.785 1.413.216.314.078.471-.413.432-.745-.078-1.746-.765-2.394-1.649Zm12.812 8.539c-3.886-1.57-5.26-2.925-5.26-5.221 0-.334.019-.609.019-.609.02 0 .157.118.334.256.785.628 1.668.902 4.122 1.256 1.433.216 2.257.373 3.003.628 2.375.785 3.847 2.394 4.2 4.573.098.628.04 1.826-.117 2.454-.138.49-.53 1.393-.629 1.413-.019 0-.058-.098-.058-.255-.04-.825-.452-1.61-1.139-2.218-.824-.707-1.884-1.237-4.475-2.277Zm-2.747.649a4.616 4.616 0 0 0-.196-.825l-.098-.294.177.216c.255.294.451.647.628 1.138.137.373.137.491.137 1.099 0 .589-.02.726-.137 1.06-.197.53-.432.903-.825 1.315-.706.726-1.629 1.119-2.944 1.296-.235.019-.903.078-1.492.117-1.472.079-2.453.236-3.336.55-.118.039-.236.079-.256.059-.039-.039.57-.393 1.06-.628.687-.334 1.394-.511 2.945-.785.765-.118 1.55-.275 1.746-.354 1.944-.608 2.905-2.119 2.591-3.964Z"/><path d="M434.358 251.977c-.51-1.119-.628-2.179-.353-3.18.039-.098.078-.196.117-.196.04 0 .157.058.275.137.236.157.726.432 1.983 1.119 1.589.863 2.492 1.531 3.12 2.296.55.668.884 1.433 1.041 2.375.098.53.039 1.806-.098 2.336-.432 1.668-1.414 3.003-2.846 3.769a2.774 2.774 0 0 1-.413.196c-.019 0 .059-.196.177-.432.471-1.001.53-1.963.177-3.042-.216-.668-.668-1.472-1.571-2.827-1.079-1.57-1.334-1.982-1.609-2.551Zm-14.627 6.003c1.452-1.217 3.238-2.08 4.887-2.355.707-.118 1.884-.079 2.532.098 1.04.275 1.982.864 2.473 1.59.471.707.687 1.315.903 2.669.078.53.177 1.08.196 1.198.157.706.471 1.256.864 1.55.608.452 1.668.471 2.709.079.176-.059.333-.118.333-.098.039.039-.49.392-.844.569-.49.255-.883.334-1.413.334-.942 0-1.747-.491-2.395-1.473-.137-.196-.412-.765-.647-1.295-.687-1.59-1.041-2.061-1.845-2.591-.707-.451-1.61-.549-2.297-.216-.903.432-1.138 1.59-.51 2.297.255.294.726.53 1.119.589a1.198 1.198 0 0 0 1.354-1.198c0-.471-.177-.746-.648-.962-.628-.274-1.315.04-1.295.648 0 .255.118.412.373.53.157.079.157.079.039.059-.569-.118-.707-.824-.255-1.276.549-.549 1.707-.314 2.1.452.157.314.177.942.039 1.334-.333.864-1.276 1.315-2.237 1.06-.648-.176-.923-.353-1.708-1.158-1.374-1.413-1.904-1.688-3.867-1.982l-.373-.059.413-.393Z"/><path fill-rule="evenodd" clip-rule="evenodd" d="M409.41 226.401c4.574 5.554 11.62 14.191 11.974 14.662.294.392.176.765-.315 1.04-.274.157-.844.314-1.118.314-.314 0-.687-.157-.942-.412-.177-.177-.943-1.296-2.67-3.985a263.977 263.977 0 0 0-2.453-3.788c-.079-.039-.079-.039 2.316 4.24 1.511 2.689 2.002 3.651 2.002 3.768 0 .256-.079.393-.393.746-.53.589-.765 1.257-.942 2.65-.196 1.551-.726 2.65-2.238 4.515-.883 1.099-1.02 1.295-1.236 1.746-.275.55-.353.864-.393 1.571-.039.746.04 1.217.256 1.923.196.628.412 1.041.942 1.845.451.707.726 1.237.726 1.433 0 .157.039.157.746 0 1.688-.392 3.081-1.06 3.847-1.884.471-.51.589-.785.589-1.492 0-.451-.02-.549-.138-.824-.196-.432-.569-.785-1.374-1.335-1.06-.726-1.511-1.315-1.629-2.1-.098-.668.02-1.119.609-2.356.608-1.275.765-1.805.863-3.101.059-.824.157-1.158.393-1.413.255-.275.471-.373 1.079-.451 1.001-.138 1.649-.393 2.159-.884.452-.412.648-.824.668-1.433l.019-.451-.255-.275c-.922-1.06-13.7-15.113-13.759-15.113-.02 0 .294.373.667.844Zm6.026 27.911a.811.811 0 0 0-.255-1.08c-.334-.216-.844-.118-.844.177 0 .078.039.157.157.196.177.098.196.196.059.412-.137.216-.137.412.039.55.275.216.648.098.844-.255Zm7.941-10.325c-.471.138-.922.648-1.06 1.158-.078.315-.039.884.098 1.06.216.275.413.354.962.354 1.08 0 2.002-.471 2.1-1.041.099-.471-.314-1.118-.883-1.413-.294-.157-.903-.216-1.217-.118Zm1.256.982c.157-.236.099-.491-.196-.668-.53-.333-1.335-.058-1.335.452 0 .255.413.53.805.53.255 0 .609-.157.726-.314Z"/></g><circle cx="406.987" cy="238.038" r="3.003" fill="#000"/><circle cx="404.635" cy="251.085" r="2.503" fill="#000"/><circle cx="443.502" cy="232.564" r="1.646" fill="#000"/><circle cx="450.12" cy="243.299" r="2.503" fill="#000"/><path d="M275.999 208.334h-3.334v-3.333a1.667 1.667 0 1 0-3.333 0l.059 3.333h-3.392a1.67 1.67 0 0 0-1.179.488 1.67 1.67 0 0 0 0 2.357c.313.313.737.488 1.179.488l3.392-.059-.059 3.393a1.667 1.667 0 0 0 3.333 0v-3.393l3.334.059a1.663 1.663 0 0 0 1.666-1.666 1.667 1.667 0 0 0-1.666-1.667ZM396.667 200h-3.334v-3.333a1.667 1.667 0 1 0-3.333 0l.059 3.333h-3.392a1.67 1.67 0 0 0-1.179.488 1.67 1.67 0 0 0 0 2.357c.313.313.737.488 1.179.488l3.392-.059-.059 3.393a1.667 1.667 0 0 0 3.333 0v-3.393l3.334.059a1.663 1.663 0 0 0 1.666-1.666 1.667 1.667 0 0 0-1.666-1.667ZM92 170.333h-3.334V167A1.665 1.665 0 0 0 87 165.333 1.665 1.665 0 0 0 85.333 167l.06 3.333H82A1.665 1.665 0 0 0 80.333 172 1.668 1.668 0 0 0 82 173.667l3.392-.059-.059 3.392A1.668 1.668 0 0 0 87 178.667 1.669 1.669 0 0 0 88.666 177v-3.392l3.334.059A1.669 1.669 0 0 0 93.666 172 1.665 1.665 0 0 0 92 170.333Zm88.5 19.5h-2.334V187.5a1.167 1.167 0 0 0-2.333 0l.041 2.333H173.5a1.166 1.166 0 0 0-.825 1.992c.219.219.515.342.825.342l2.374-.042-.041 2.375a1.166 1.166 0 1 0 2.333 0v-2.375l2.334.042a1.167 1.167 0 0 0 0-2.334Zm197-10h-2.334V177.5a1.167 1.167 0 0 0-2.333 0l.041 2.333H370.5a1.166 1.166 0 0 0-.825 1.992c.219.219.515.342.825.342l2.374-.042-.041 2.375a1.166 1.166 0 1 0 2.333 0v-2.375l2.334.042a1.167 1.167 0 0 0 0-2.334ZM229.948 127c-.632 0-1.474.421-1.684 1.053C227 129.948 223 136.054 223 139.001c0 3.79 3.158 6.948 6.948 6.948 3.79 0 6.948-3.158 6.948-6.948 0-3.158-4-9.264-5.053-10.948-.632-.632-1.263-1.053-1.895-1.053Z" fill="#0FFD6A"/><path d="M291.044 61.782c-3.431-3.338-8.968-3.309-12.363.086l-5.834 5.836-.212.212-.213-.212-2.719-2.716a2.398 2.398 0 0 0-3.382 0l-5.985 5.985a2.396 2.396 0 0 0 0 3.382l18.308 18.309a2.4 2.4 0 0 0 3.382 0l5.988-5.985a2.402 2.402 0 0 0 0-3.382l3.03-21.514Zm0 0 .088.088c3.424 3.424 3.424 9.026 0 12.45l-5.837 5.834-.212.212.212.212 2.719 2.719 3.03-21.514Zm-50.11 57.184.109-.078 12.045-8.69 18.436-18.431-10.289-10.288L242.8 99.913l-8.691 12.044a4.21 4.21 0 0 0 .439 5.474l6.386 1.535Zm0 0a4.206 4.206 0 0 1-5.365-.515l-1.02-1.02 6.385 1.535Z" stroke="#fff" stroke-width=".6"/><defs><clipPath id="a"><path fill="#fff" transform="translate(114.785 225.557)" d="M0 0h33.034v38.039H0z"/></clipPath><clipPath id="b"><path fill="#fff" transform="translate(212.77 225.557)" d="M0 0h33.034v38.039H0z"/></clipPath><clipPath id="c"><path fill="#fff" transform="translate(310.75 225.557)" d="M0 0h33.034v38.039H0z"/></clipPath><clipPath id="d"><path fill="#fff" transform="translate(408.742 225.557)" d="M0 0h33.034v38.039H0z"/></clipPath></defs></svg>