<svg width="555" height="336" fill="none" xmlns="http://www.w3.org/2000/svg"><path fill="#1E2229" d="M0 0h555v336H0z"/><rect x="96.801" y="130.398" width="72" height="72.002" rx="36" fill="#0FFD6A"/><g clip-path="url(#a)" fill="#000"><path d="M125.766 149.176c-.494-.071-.518-.094-.282-.118.447-.07 1.482.024 2.211.189 1.694.4 3.224 1.435 4.847 3.247l.424.494.612-.094c2.611-.424 5.294-.094 7.529.941.612.282 1.577.847 1.694.988.047.047.118.353.165.659.165 1.106.094 1.93-.259 2.565-.188.353-.188.447-.071.753.095.235.377.4.636.4.564 0 1.153-.894 1.435-2.141l.118-.495.211.236c1.2 1.341 2.142 3.2 2.283 4.518l.047.352-.212-.305c-.353-.542-.682-.895-1.129-1.2-.8-.542-1.647-.706-3.883-.824-2.023-.118-3.176-.282-4.306-.659-1.929-.635-2.917-1.459-5.2-4.494-1.011-1.341-1.647-2.071-2.282-2.682-1.388-1.342-2.776-2.048-4.588-2.33Z"/><path d="M143.291 152.163c.047-.894.165-1.482.424-2.023.094-.212.188-.4.211-.4.024 0-.023.164-.094.353-.188.517-.211 1.247-.094 2.07.165 1.059.235 1.2 1.365 2.353a39.315 39.315 0 0 1 1.365 1.506l.4.518-.4-.377c-.495-.47-1.624-1.364-1.883-1.482-.164-.094-.188-.094-.306.024-.094.094-.117.235-.117.917-.024 1.059-.165 1.718-.518 2.4-.188.353-.212.283-.047-.117.118-.306.141-.447.141-1.459 0-2.047-.235-2.541-1.67-3.365a17.225 17.225 0 0 0-1.318-.682c-.377-.165-.659-.306-.635-.306.047-.047 1.435.353 1.976.588.824.329.965.353 1.059.329.071-.07.118-.258.141-.847ZM126.733 155.668c-.988-1.364-1.623-3.482-1.482-5.059l.047-.494.235.047c.424.071 1.153.353 1.506.565.941.565 1.365 1.341 1.765 3.271.118.564.282 1.223.353 1.435.118.353.565 1.177.941 1.694.259.377.094.565-.494.518-.894-.094-2.094-.918-2.871-1.977ZM142.1 165.907c-4.659-1.882-6.306-3.506-6.306-6.259 0-.4.023-.729.023-.729.024 0 .189.141.4.306.942.753 2 1.082 4.942 1.506 1.717.259 2.706.447 3.6.753 2.847.941 4.611 2.87 5.035 5.482.118.753.047 2.189-.141 2.941-.165.589-.636 1.671-.753 1.695-.024 0-.071-.118-.071-.306-.047-.989-.541-1.93-1.364-2.659-.989-.847-2.259-1.483-5.365-2.73ZM138.797 166.682a5.614 5.614 0 0 0-.235-.988l-.118-.353.212.259c.306.353.541.776.753 1.364.165.447.165.589.165 1.318 0 .706-.024.871-.165 1.271a4.26 4.26 0 0 1-.988 1.576c-.847.871-1.953 1.341-3.53 1.553-.282.024-1.082.094-1.788.141-1.765.095-2.941.283-4 .659-.141.047-.282.094-.306.071-.047-.047.682-.471 1.271-.753.823-.4 1.67-.612 3.529-.941.918-.142 1.859-.33 2.094-.424 2.33-.729 3.483-2.541 3.106-4.753Z"/><path d="M140.945 170.471c-.612-1.341-.753-2.612-.423-3.812.047-.118.094-.235.141-.235.047 0 .188.07.329.165.283.188.871.517 2.377 1.341 1.906 1.035 2.988 1.835 3.741 2.753.659.8 1.059 1.717 1.247 2.847.118.635.047 2.165-.118 2.8-.517 2-1.694 3.6-3.412 4.518-.258.141-.47.235-.494.235-.023 0 .071-.235.212-.518.565-1.2.635-2.353.212-3.647-.259-.8-.8-1.765-1.882-3.388-1.295-1.882-1.6-2.377-1.93-3.059ZM123.412 177.67c1.741-1.459 3.882-2.494 5.859-2.824.847-.141 2.259-.094 3.035.118 1.247.329 2.377 1.035 2.965 1.906.565.847.823 1.576 1.082 3.2.094.635.212 1.294.236 1.435.188.847.564 1.506 1.035 1.859.729.541 2 .565 3.247.094.212-.07.4-.141.4-.117.047.047-.588.47-1.012.682-.588.306-1.059.4-1.694.4-1.129 0-2.094-.588-2.871-1.765-.164-.235-.494-.917-.776-1.553-.824-1.906-1.247-2.47-2.212-3.106-.847-.541-1.929-.658-2.753-.258-1.082.517-1.364 1.905-.612 2.753.306.352.871.635 1.342.705a1.435 1.435 0 0 0 1.623-1.435c0-.565-.212-.894-.776-1.153-.753-.329-1.577.047-1.553.777 0 .306.141.494.447.635.188.094.188.094.047.071-.682-.142-.847-.989-.306-1.53.659-.659 2.047-.376 2.518.541.188.377.211 1.13.047 1.6-.4 1.036-1.53 1.577-2.683 1.271-.776-.212-1.106-.424-2.047-1.388-1.647-1.695-2.282-2.024-4.635-2.377l-.447-.07.494-.471Z"/><path fill-rule="evenodd" clip-rule="evenodd" d="M111.035 139.811c5.483 6.659 13.93 17.012 14.353 17.577.353.471.212.918-.376 1.247-.33.188-1.012.377-1.341.377-.377 0-.824-.189-1.13-.494-.211-.212-1.129-1.553-3.2-4.777a291.34 291.34 0 0 0-2.941-4.541c-.094-.047-.094-.047 2.777 5.082 1.811 3.224 2.4 4.377 2.4 4.518 0 .306-.095.47-.471.894-.635.706-.918 1.506-1.129 3.177-.236 1.858-.871 3.176-2.683 5.411-1.059 1.318-1.223 1.553-1.482 2.095-.33.659-.424 1.035-.471 1.882-.047.894.047 1.459.306 2.306.235.753.494 1.247 1.13 2.212.541.847.87 1.482.87 1.718 0 .188.047.188.894 0 2.024-.471 3.694-1.271 4.612-2.259.565-.612.706-.942.706-1.789 0-.541-.024-.658-.165-.988-.235-.518-.682-.941-1.647-1.6-1.27-.871-1.812-1.576-1.953-2.518-.117-.8.024-1.341.73-2.823.729-1.53.917-2.165 1.035-3.718.071-.988.188-1.388.471-1.694.305-.33.564-.447 1.294-.541 1.2-.165 1.976-.471 2.588-1.059.541-.494.776-.988.8-1.718l.023-.541-.305-.33c-1.106-1.27-16.424-18.118-16.495-18.118-.023 0 .353.447.8 1.012Zm7.224 33.46a.97.97 0 0 0-.306-1.294c-.4-.259-1.012-.141-1.012.211 0 .095.047.189.189.236.211.117.235.235.07.494-.165.259-.165.494.047.659.33.259.777.117 1.012-.306ZM127.792 160.894c-.565.165-1.106.776-1.27 1.388-.095.377-.047 1.059.117 1.271.259.329.494.423 1.153.423 1.294 0 2.4-.564 2.518-1.247.117-.564-.377-1.341-1.059-1.694-.353-.188-1.082-.259-1.459-.141Zm1.506 1.176c.188-.282.118-.588-.235-.8-.636-.4-1.6-.07-1.6.542 0 .306.494.635.964.635.306 0 .73-.188.871-.377Z"/></g><g clip-path="url(#b)" fill="#606A77"><path d="M87.71 209.116c-.329-.047-.345-.063-.188-.078.298-.047.988.015 1.475.125 1.13.267 2.149.957 3.231 2.165l.282.329.408-.062c1.741-.283 3.53-.063 5.02.627.408.188 1.05.565 1.13.659.03.031.078.235.11.439.109.737.062 1.286-.173 1.71-.126.235-.126.298-.047.502.062.157.25.267.423.267.376 0 .769-.597.957-1.428l.078-.329.141.157c.8.894 1.428 2.133 1.522 3.011l.031.236-.141-.204c-.235-.361-.455-.596-.753-.8-.533-.361-1.098-.471-2.588-.549-1.349-.079-2.118-.189-2.87-.44-1.287-.423-1.946-.972-3.467-2.996-.675-.894-1.098-1.38-1.522-1.788-.925-.894-1.85-1.365-3.059-1.553Z"/><path d="M99.395 211.108c.031-.596.11-.988.282-1.349.063-.141.126-.267.141-.267.016 0-.015.11-.062.235-.126.346-.141.832-.063 1.381.11.706.157.8.91 1.569.345.36.753.815.91 1.003l.266.346-.266-.251c-.33-.314-1.083-.91-1.255-.989-.11-.062-.126-.062-.204.016-.063.063-.079.157-.079.612-.015.706-.11 1.145-.345 1.6-.125.235-.141.188-.031-.079.078-.204.094-.298.094-.972 0-1.365-.157-1.694-1.114-2.243a11.484 11.484 0 0 0-.878-.455c-.251-.11-.44-.204-.424-.204.032-.032.957.235 1.318.392.549.22.643.235.706.22.047-.047.078-.173.094-.565ZM88.356 213.444c-.659-.91-1.083-2.321-.988-3.372l.03-.33.158.032c.282.047.768.235 1.004.376.627.377.91.894 1.176 2.18.079.377.188.816.236.957.078.236.376.785.627 1.13.172.251.063.376-.33.345-.596-.063-1.396-.612-1.913-1.318ZM98.599 220.27c-3.106-1.255-4.205-2.338-4.205-4.173 0-.267.016-.486.016-.486.016 0 .126.094.267.204.627.502 1.333.721 3.294 1.004 1.145.172 1.804.298 2.4.502 1.898.627 3.075 1.913 3.357 3.655.078.502.031 1.458-.094 1.96-.11.392-.424 1.114-.502 1.13-.016 0-.047-.079-.047-.204-.032-.659-.361-1.286-.91-1.773-.659-.564-1.506-.988-3.576-1.819ZM96.4 220.786a3.736 3.736 0 0 0-.156-.659l-.079-.235.141.173c.204.235.361.517.502.909.11.298.11.393.11.879 0 .47-.016.58-.11.847a2.848 2.848 0 0 1-.658 1.051c-.565.58-1.302.894-2.353 1.035-.189.016-.722.063-1.192.094-1.177.063-1.961.189-2.667.44-.094.031-.188.062-.204.047-.031-.032.455-.314.847-.502.549-.267 1.114-.408 2.353-.628.612-.094 1.24-.219 1.396-.282 1.553-.486 2.322-1.694 2.07-3.169Z"/><path d="M97.83 223.312c-.408-.894-.502-1.741-.282-2.541.031-.079.063-.157.094-.157a.67.67 0 0 1 .22.11c.188.125.58.345 1.584.894 1.271.69 1.992 1.223 2.494 1.835.439.533.706 1.145.831 1.898.079.424.032 1.443-.078 1.867-.345 1.333-1.129 2.4-2.275 3.011a2.059 2.059 0 0 1-.329.157c-.016 0 .047-.157.141-.345.377-.8.424-1.568.141-2.431-.172-.533-.533-1.177-1.254-2.259-.863-1.255-1.067-1.584-1.287-2.039ZM86.143 228.111c1.16-.973 2.588-1.663 3.906-1.882.564-.095 1.506-.063 2.023.078.832.22 1.585.69 1.977 1.271.376.564.549 1.051.721 2.133.063.423.142.863.157.957.126.565.377 1.004.69 1.239.487.361 1.334.377 2.165.063.141-.047.267-.094.267-.079.031.032-.392.314-.675.455a2.22 2.22 0 0 1-1.13.267c-.752 0-1.395-.392-1.913-1.177-.11-.156-.33-.611-.517-1.035-.55-1.27-.832-1.647-1.475-2.07-.565-.361-1.286-.44-1.835-.173-.722.345-.91 1.271-.408 1.835.204.236.58.424.894.471a.958.958 0 0 0 1.082-.957c0-.376-.14-.596-.517-.769-.502-.219-1.051.032-1.036.518 0 .204.094.329.298.424.126.062.126.062.032.047-.455-.094-.565-.659-.204-1.02.44-.439 1.365-.251 1.678.361.126.251.142.753.032 1.066-.267.691-1.02 1.051-1.789.848-.517-.142-.737-.283-1.364-.926-1.098-1.129-1.522-1.349-3.09-1.584l-.298-.047.329-.314Z"/><path fill-rule="evenodd" clip-rule="evenodd" d="M77.891 202.873c3.655 4.439 9.287 11.341 9.57 11.717.234.314.14.612-.252.832-.22.125-.674.251-.894.251-.251 0-.549-.126-.753-.33-.141-.141-.753-1.035-2.133-3.184a198.15 198.15 0 0 0-1.961-3.027c-.063-.032-.063-.032 1.85 3.388 1.209 2.149 1.6 2.917 1.6 3.012 0 .203-.062.313-.313.596-.423.47-.612 1.004-.753 2.117-.157 1.24-.58 2.118-1.788 3.608-.706.879-.816 1.035-.988 1.396-.22.439-.283.69-.314 1.255-.031.596.031.973.204 1.537.157.502.33.832.753 1.475.36.565.58.988.58 1.145 0 .125.032.125.596 0 1.35-.314 2.463-.847 3.075-1.506.376-.408.47-.627.47-1.192 0-.361-.015-.439-.11-.659-.156-.345-.454-.627-1.097-1.067-.847-.58-1.208-1.051-1.302-1.678-.079-.533.015-.894.486-1.882.486-1.02.612-1.443.69-2.479.047-.659.126-.925.314-1.129.204-.22.376-.298.863-.361.8-.11 1.317-.314 1.725-.706.36-.329.518-.659.533-1.145l.016-.361-.204-.219c-.737-.847-10.949-12.079-10.996-12.079-.016 0 .235.298.533.675Zm4.816 22.306a.648.648 0 0 0-.204-.863c-.266-.173-.674-.094-.674.141 0 .063.031.126.125.157.141.078.157.157.047.329-.11.173-.11.33.032.44.22.172.517.078.674-.204ZM89.062 216.928c-.377.109-.738.517-.847.925-.063.251-.032.706.078.847.173.22.33.282.769.282.862 0 1.6-.376 1.678-.831.079-.376-.25-.894-.706-1.129-.235-.126-.721-.173-.972-.094Zm1.004.784c.125-.188.078-.392-.157-.534-.424-.266-1.067-.047-1.067.361 0 .204.33.424.643.424.204 0 .487-.126.58-.251Z"/></g><rect x="68.798" y="197" width="47.2" height="47.2" rx="23.6" stroke="#606A77" stroke-width=".8" stroke-dasharray="1.6 1.6"/><g clip-path="url(#c)" fill="#606A77"><path d="M59.31 154.919c-.33-.047-.346-.062-.19-.078.299-.047.99.016 1.475.125 1.13.267 2.15.957 3.232 2.165l.282.33.408-.063c1.741-.282 3.53-.063 5.02.627.407.189 1.05.565 1.129.659.031.032.078.235.11.439.11.738.063 1.287-.173 1.71-.125.235-.125.298-.047.502.063.157.251.267.424.267.376 0 .768-.596.956-1.428l.079-.329.141.157c.8.894 1.428 2.133 1.522 3.012l.031.235-.141-.204c-.235-.361-.455-.596-.753-.8-.533-.361-1.098-.471-2.588-.549-1.35-.079-2.118-.188-2.87-.439-1.287-.424-1.946-.973-3.468-2.996-.674-.895-1.098-1.381-1.521-1.789-.926-.894-1.851-1.364-3.059-1.553Z"/><path d="M70.993 156.911c.031-.596.11-.988.282-1.349.063-.141.125-.267.141-.267.016 0-.016.11-.063.236-.125.345-.14.831-.062 1.38.11.706.157.8.91 1.569.345.361.752.815.91 1.004l.266.345-.267-.251c-.33-.314-1.082-.91-1.255-.988-.11-.063-.125-.063-.204.015-.062.063-.078.157-.078.612-.016.706-.11 1.145-.345 1.6-.126.235-.141.188-.031-.078.078-.204.094-.298.094-.973 0-1.365-.157-1.694-1.114-2.243a11.854 11.854 0 0 0-.879-.455c-.25-.11-.439-.204-.423-.204.031-.031.957.235 1.318.392.549.22.643.235.706.22.046-.047.078-.173.094-.565ZM59.953 159.247c-.658-.909-1.082-2.321-.988-3.372l.032-.33.156.032c.283.047.77.235 1.004.376.628.377.91.894 1.177 2.181.078.376.188.815.235.957.079.235.377.784.628 1.129.172.251.062.376-.33.345-.596-.063-1.396-.612-1.914-1.318ZM70.197 166.073c-3.106-1.255-4.204-2.337-4.204-4.173 0-.266.016-.486.016-.486.016 0 .125.094.266.204.628.502 1.334.722 3.295 1.004 1.145.172 1.804.298 2.4.502 1.898.627 3.074 1.914 3.356 3.655.079.502.032 1.459-.094 1.961-.11.392-.423 1.113-.502 1.129-.015 0-.047-.078-.047-.204-.031-.659-.36-1.286-.91-1.773-.658-.564-1.505-.988-3.576-1.819ZM67.998 166.589a3.698 3.698 0 0 0-.157-.658l-.078-.236.141.173c.204.235.36.518.502.91.11.298.11.392.11.878 0 .471-.016.58-.11.847a2.83 2.83 0 0 1-.659 1.051c-.564.581-1.302.894-2.353 1.035-.188.016-.721.063-1.192.095-1.176.062-1.96.188-2.667.439-.094.031-.188.063-.203.047-.032-.032.454-.314.847-.502.549-.267 1.113-.408 2.352-.628.612-.094 1.24-.219 1.397-.282 1.553-.486 2.321-1.694 2.07-3.169Z"/><path d="M69.428 169.116c-.408-.895-.502-1.742-.282-2.542.03-.078.062-.157.094-.157.031 0 .125.048.22.11.188.126.58.345 1.584.894 1.27.691 1.992 1.224 2.494 1.836.439.533.706 1.145.831 1.898.079.423.031 1.443-.078 1.866-.345 1.334-1.13 2.4-2.275 3.012a2.203 2.203 0 0 1-.33.157c-.015 0 .048-.157.142-.345.376-.8.423-1.569.141-2.431-.172-.534-.533-1.177-1.255-2.259-.863-1.255-1.067-1.585-1.286-2.039ZM57.74 173.915c1.161-.973 2.589-1.663 3.906-1.883.565-.094 1.506-.062 2.024.079.831.219 1.584.69 1.976 1.27.377.565.55 1.051.722 2.134.063.423.141.862.157.957.125.564.376 1.003.69 1.239.486.361 1.333.376 2.165.062.14-.047.266-.094.266-.078.032.031-.392.314-.674.455a2.22 2.22 0 0 1-1.13.267c-.752 0-1.396-.393-1.913-1.177-.11-.157-.33-.612-.518-1.035-.549-1.271-.831-1.647-1.474-2.071-.565-.361-1.287-.439-1.836-.172-.721.345-.91 1.27-.407 1.835.203.235.58.424.894.471a.958.958 0 0 0 1.082-.957c0-.377-.141-.596-.518-.769-.502-.219-1.05.031-1.035.518 0 .204.094.329.298.423.126.063.126.063.031.047-.454-.094-.564-.658-.203-1.019.439-.439 1.364-.251 1.678.361.125.251.141.752.031 1.066-.266.69-1.02 1.051-1.788.847-.518-.141-.737-.282-1.365-.925-1.098-1.13-1.521-1.349-3.09-1.585l-.298-.047.33-.313Z"/><path fill-rule="evenodd" clip-rule="evenodd" d="M49.49 148.676c3.654 4.44 9.285 11.342 9.568 11.718.235.314.14.612-.251.831-.22.126-.675.251-.894.251-.251 0-.55-.125-.753-.329-.141-.141-.753-1.035-2.134-3.184a207.746 207.746 0 0 0-1.96-3.028c-.063-.031-.063-.031 1.85 3.389 1.208 2.149 1.6 2.917 1.6 3.011 0 .204-.062.314-.313.596-.424.471-.612 1.004-.753 2.118-.157 1.239-.58 2.118-1.788 3.608-.706.878-.816 1.035-.989 1.396-.22.439-.282.69-.313 1.255-.032.596.031.972.204 1.537.157.502.329.831.753 1.475.36.564.58.988.58 1.145 0 .125.031.125.596 0 1.35-.314 2.463-.847 3.075-1.506.376-.408.47-.628.47-1.192 0-.361-.016-.44-.11-.659-.156-.345-.455-.628-1.098-1.067-.847-.58-1.208-1.051-1.302-1.678-.078-.534.016-.894.487-1.883.486-1.019.611-1.443.69-2.478.047-.659.125-.926.314-1.129.203-.22.376-.298.862-.361.8-.11 1.318-.314 1.726-.706.36-.33.517-.659.533-1.145l.016-.361-.204-.22c-.737-.847-10.95-12.078-10.996-12.078-.016 0 .235.298.533.674Zm4.815 22.306a.647.647 0 0 0-.204-.862c-.267-.173-.675-.095-.675.141 0 .063.032.125.126.157.141.078.157.157.047.329-.11.173-.11.329.031.439.22.173.518.079.675-.204ZM60.66 162.731c-.377.11-.738.517-.848.925-.063.251-.031.706.079.847.172.22.33.283.768.283.863 0 1.6-.377 1.679-.832.078-.376-.251-.894-.706-1.129-.235-.126-.722-.173-.973-.094Zm1.003.784c.126-.188.079-.392-.157-.533-.423-.267-1.066-.047-1.066.36 0 .204.33.424.643.424.204 0 .486-.125.58-.251Z"/></g><rect x="40.4" y="142.8" width="47.2" height="47.2" rx="23.6" stroke="#606A77" stroke-width=".8" stroke-dasharray="1.6 1.6"/><g clip-path="url(#d)" fill="#606A77"><path d="M87.71 103.518c-.329-.047-.345-.063-.188-.079.298-.047.988.016 1.475.126 1.13.266 2.149.957 3.231 2.164l.282.33.408-.063c1.741-.282 3.53-.063 5.02.627.408.189 1.05.565 1.13.659.03.032.078.236.11.44.109.737.062 1.286-.173 1.709-.126.236-.126.298-.047.502.062.157.25.267.423.267.376 0 .769-.596.957-1.428l.078-.329.141.157c.8.894 1.428 2.133 1.522 3.012l.031.235-.141-.204c-.235-.361-.455-.596-.753-.8-.533-.361-1.098-.471-2.588-.549-1.349-.078-2.118-.188-2.87-.439-1.287-.424-1.946-.973-3.467-2.996-.675-.894-1.098-1.381-1.522-1.788-.925-.895-1.85-1.365-3.059-1.553Z"/><path d="M99.395 105.509c.031-.596.11-.988.282-1.349.063-.141.126-.266.141-.266.016 0-.015.109-.062.235-.126.345-.141.831-.063 1.38.11.706.157.8.91 1.569.345.361.753.816.91 1.004l.266.345-.266-.251c-.33-.314-1.083-.91-1.255-.988-.11-.063-.126-.063-.204.015-.063.063-.079.157-.079.612-.015.706-.11 1.145-.345 1.6-.125.235-.141.188-.031-.078.078-.204.094-.298.094-.973 0-1.365-.157-1.694-1.114-2.243a11.854 11.854 0 0 0-.878-.455c-.251-.11-.44-.204-.424-.204.032-.031.957.235 1.318.392.549.22.643.236.706.22.047-.047.078-.173.094-.565ZM88.356 107.846c-.659-.91-1.083-2.322-.988-3.373l.03-.329.158.031c.282.047.768.235 1.004.376.627.377.91.895 1.176 2.181.079.376.188.815.236.957.078.235.376.784.627 1.129.172.251.063.377-.33.345-.596-.063-1.396-.612-1.913-1.317ZM98.599 114.671c-3.106-1.255-4.205-2.337-4.205-4.173 0-.266.016-.486.016-.486.016 0 .126.094.267.204.627.502 1.333.722 3.294 1.004 1.145.173 1.804.298 2.4.502 1.898.627 3.075 1.914 3.357 3.655.078.502.031 1.459-.094 1.961-.11.392-.424 1.113-.502 1.129-.016 0-.047-.078-.047-.204-.032-.659-.361-1.286-.91-1.772-.659-.565-1.506-.989-3.576-1.82ZM96.4 115.188a3.692 3.692 0 0 0-.156-.659l-.079-.236.141.173c.204.235.361.518.502.91.11.298.11.392.11.878 0 .471-.016.581-.11.847a2.832 2.832 0 0 1-.658 1.051c-.565.581-1.302.894-2.353 1.036-.189.015-.722.062-1.192.094-1.177.062-1.961.188-2.667.439-.094.031-.188.063-.204.047-.031-.031.455-.314.847-.502.549-.267 1.114-.408 2.353-.627.612-.095 1.24-.22 1.396-.283 1.553-.486 2.322-1.694 2.07-3.168Z"/><path d="M97.83 117.714c-.408-.894-.502-1.742-.282-2.542.031-.078.063-.156.094-.156s.126.047.22.109c.188.126.58.346 1.584.895 1.271.69 1.992 1.223 2.494 1.835.439.533.706 1.145.831 1.898.079.423.032 1.443-.078 1.867-.345 1.333-1.129 2.4-2.275 3.011a2.165 2.165 0 0 1-.329.157c-.016 0 .047-.157.141-.345.377-.8.424-1.569.141-2.431-.172-.534-.533-1.177-1.254-2.259-.863-1.255-1.067-1.584-1.287-2.039ZM86.143 122.512c1.16-.972 2.588-1.662 3.906-1.882.564-.094 1.506-.063 2.023.078.832.22 1.585.691 1.977 1.271.376.565.549 1.051.721 2.133.063.424.142.863.157.957.126.565.377 1.004.69 1.239.487.361 1.334.377 2.165.063.141-.047.267-.094.267-.078.031.031-.392.313-.675.455-.392.204-.706.266-1.13.266-.752 0-1.395-.392-1.913-1.176-.11-.157-.33-.612-.517-1.035-.55-1.271-.832-1.648-1.475-2.071-.565-.361-1.286-.439-1.835-.173-.722.345-.91 1.271-.408 1.836.204.235.58.423.894.47a.956.956 0 0 0 1.082-.957c0-.376-.14-.596-.517-.768-.502-.22-1.051.031-1.036.517 0 .204.094.33.298.424.126.063.126.063.032.047-.455-.094-.565-.659-.204-1.02.44-.439 1.365-.251 1.678.361.126.251.142.753.032 1.067-.267.69-1.02 1.051-1.789.847-.517-.141-.737-.282-1.364-.926-1.098-1.129-1.522-1.349-3.09-1.584l-.298-.047.329-.314Z"/><path fill-rule="evenodd" clip-rule="evenodd" d="M77.891 97.274c3.655 4.439 9.287 11.341 9.57 11.718.234.313.14.612-.252.831-.22.126-.674.251-.894.251-.251 0-.549-.125-.753-.329-.141-.141-.753-1.036-2.133-3.185a204.236 204.236 0 0 0-1.961-3.027c-.063-.031-.063-.031 1.85 3.388 1.209 2.149 1.6 2.918 1.6 3.012 0 .204-.062.314-.313.596-.423.471-.612 1.004-.753 2.118-.157 1.239-.58 2.117-1.788 3.608-.706.878-.816 1.035-.988 1.396-.22.439-.283.69-.314 1.254-.031.597.031.973.204 1.538.157.502.33.831.753 1.474.36.565.58.988.58 1.145 0 .126.032.126.596 0 1.35-.313 2.463-.847 3.075-1.506.376-.407.47-.627.47-1.192 0-.36-.015-.439-.11-.659-.156-.345-.454-.627-1.097-1.066-.847-.581-1.208-1.051-1.302-1.679-.079-.533.015-.894.486-1.882.486-1.02.612-1.443.69-2.478.047-.659.126-.926.314-1.13.204-.219.376-.298.863-.361.8-.109 1.317-.313 1.725-.705.36-.33.518-.659.533-1.146l.016-.36-.204-.22c-.737-.847-10.949-12.078-10.996-12.078-.016 0 .235.298.533.674Zm4.816 22.306a.648.648 0 0 0-.204-.863c-.266-.172-.674-.094-.674.141 0 .063.031.126.125.157.141.079.157.157.047.33-.11.172-.11.329.032.439.22.172.517.078.674-.204ZM89.062 111.329c-.377.11-.738.518-.847.925-.063.251-.032.706.078.847.173.22.33.283.769.283.862 0 1.6-.377 1.678-.832.079-.376-.25-.894-.706-1.129-.235-.126-.721-.173-.972-.094Zm1.004.784c.125-.188.078-.392-.157-.533-.424-.267-1.067-.047-1.067.361 0 .204.33.423.643.423.204 0 .487-.125.58-.251Z"/></g><rect x="68.798" y="91.4" width="47.2" height="47.2" rx="23.6" stroke="#606A77" stroke-width=".8" stroke-dasharray="1.6 1.6"/><path d="m225 166.799-5-2.887v5.774l5-2.887Zm-6-.5h-4v1h4v-1Zm-8 0h-4v1h4v-1Zm-8 0h-4v1h4v-1Zm-8 0h-4v1h4v-1Zm-8 0h-4v1h4v-1Zm-8 0h-4v1h4v-1Zm-8 0h-2v1h2v-1Zm54 .5-10-5.774v11.547l10-5.773Zm-6-1h-4v2h4v-2Zm-8 0h-4v2h4v-2Zm-8 0h-4v2h4v-2Zm-8 0h-4v2h4v-2Zm-8 0h-4v2h4v-2Zm-8 0h-4v2h4v-2Zm-8 0h-2v2h2v-2Z" fill="#0FFD6A"/><rect x="225" y="130.799" width="72" height="72.002" rx="36" fill="#0FFD6A"/><g filter="url(#e)"><path d="M266 134.799h107l-6.5 32 6.5 32H266v-64Z" fill="url(#f)" fill-opacity=".08" shape-rendering="crispEdges"/></g><path d="M259.254 166.375a9.287 9.287 0 0 0 9.288-9.288 9.287 9.287 0 0 0-9.288-9.288 9.288 9.288 0 0 0-9.288 9.288 9.288 9.288 0 0 0 9.288 9.288Zm6.502 2.322h-1.212a12.647 12.647 0 0 1-5.29 1.161c-1.886 0-3.671-.421-5.29-1.161h-1.211c-5.385 0-9.753 4.369-9.753 9.753v3.018a3.485 3.485 0 0 0 3.483 3.484h25.543a3.485 3.485 0 0 0 3.483-3.484v-3.018c0-5.384-4.369-9.753-9.753-9.753Z" fill="#000"/><circle cx="280.416" cy="169.141" r="12.58" fill="#0FFD6A" stroke="#000" stroke-width="1.525"/><path d="M276.222 167.997h-.762v-1.524h-1.525v1.524h-.762a.763.763 0 0 0-.763.763v4.574c0 .422.342.763.763.763h.762v1.524h1.525v-1.524h.762a.763.763 0 0 0 .763-.763v-4.574a.763.763 0 0 0-.763-.763Zm-.762 4.575h-1.525v-3.05h1.525v3.05ZM282.32 161.898h-.763v-1.525h-1.524v1.525h-.763a.762.762 0 0 0-.762.762v4.575c0 .421.341.762.762.762h.763v1.525h1.524v-1.525h.763a.762.762 0 0 0 .762-.762v-4.575a.762.762 0 0 0-.762-.762Zm-.763 4.574h-1.524v-3.049h1.524v3.049ZM288.421 164.949h-.762v-1.525h-1.525v1.525h-.762a.762.762 0 0 0-.763.762v4.574c0 .422.342.763.763.763h.762v1.525h1.525v-1.525h.762a.763.763 0 0 0 .763-.763v-4.574a.762.762 0 0 0-.763-.762Zm-.762 4.574h-1.525v-3.05h1.525v3.05Z" fill="#000"/><path d="M350.562 173.84h-27.655a.442.442 0 0 1-.439-.439v-13.06a.439.439 0 0 1 .439-.439h23.128v.878h-22.689v12.182h26.777V160.78h-2.305v-.878h2.744a.44.44 0 0 1 .439.439v13.06a.44.44 0 0 1-.439.439Z" fill="#fff"/><path d="M346.032 161.987h-18.601v.878h18.601v-.878ZM330.106 170.876h-2.675v.878h2.675v-.878ZM346.037 170.876h-13.801v.878h13.801v-.878ZM325.649 164.659h-.878v4.446h.878v-4.446ZM348.697 164.659h-.878v4.446h.878v-4.446ZM336.737 170.038a3.104 3.104 0 0 1-3.1-3.1v-.439h.878v.439a2.22 2.22 0 1 0 1.132-1.937l-.382.216-.432-.765.383-.216a3.099 3.099 0 0 1 4.558 3.319 3.105 3.105 0 0 1-1.67 2.165 3.099 3.099 0 0 1-1.367.318Z" fill="#fff"/><path d="M348.695 165.537h-.439a3.1 3.1 0 0 1-3.1-3.099v-.451h.878v.451a2.223 2.223 0 0 0 2.222 2.222h.439v.877ZM346.034 171.756l-.878-.004.002-.439a3.108 3.108 0 0 1 3.1-3.086h.439v.878h-.439a2.226 2.226 0 0 0-2.222 2.212l-.002.439ZM325.21 165.537h-.439v-.877h.439a2.225 2.225 0 0 0 2.223-2.222v-.451h.878v.451a3.1 3.1 0 0 1-3.101 3.099ZM327.435 171.756l-.002-.439a2.228 2.228 0 0 0-2.223-2.212h-.439v-.878h.439a3.105 3.105 0 0 1 3.101 3.086l.002.439-.878.004ZM316.245 159.902H313v.878h3.245v-.878ZM323.346 159.902h-5.612v.878h5.612v-.878ZM323.346 163.415h-5.612v.878h5.612v-.878ZM316.731 169.559H313v.878h3.731v-.878ZM323.347 169.559h-5.206v.878h5.206v-.878ZM323.346 172.962h-3.402v.878h3.402v-.878ZM323.345 166.926h-7.492v.878h7.492v-.878Z" fill="#fff"/><g filter="url(#g)"><rect x="367" y="92.799" width="148" height="148" rx="74" fill="#0FFD6A" fill-opacity=".08" shape-rendering="crispEdges"/><rect x="409" y="134.799" width="64" height="64" rx="32" fill="#0FFD6A"/><path d="M447.645 162.908c1.179.045 2.366.007 3.533.156 1.029.131 2.056.385 2.938 1.041 1.022.758 1.614 1.793 1.886 3.059.229 1.053.161 2.107.048 3.162a5.946 5.946 0 0 1-.176.969c-.087.306-.016.561.093.844.429 1.102.641 2.234.432 3.434-.143.818-.454 1.544-.992 2.147-.221.247-.292.509-.302.84-.035 1.17-.24 2.29-.924 3.266-.356.511-.809.9-1.274 1.286-.14.117-.27.284-.338.458-.137.355-.224.733-.342 1.098-.231.723-.577 1.399-1.065 1.943-.694.775-1.548 1.258-2.603 1.363a8.172 8.172 0 0 1-2.494-.137c-.668-.14-1.27.034-1.856.348-.419.224-.83.467-1.263.651-.946.404-1.93.447-2.931.274a7.94 7.94 0 0 1-2.661-.975c-.984-.577-1.948-1.21-2.777-2.033-.29-.287-.584-.569-.886-.841-.54-.486-1.162-.537-1.819-.342-.285.085-.565.196-.846.291-.805.273-1.49.009-2.064-.57-.745-.75-1.299-1.663-1.845-2.576a15.004 15.004 0 0 1-1.625-3.722c-.407-1.467-.653-2.972-.37-4.499.16-.87.322-1.755.8-2.525.178-.289.334-.594.492-.896.433-.831 1.171-1.166 1.998-1.344 1.186-.256 2.122-.921 2.937-1.845.583-.66.873-1.488 1.296-2.24.389-.691.687-1.439 1.049-2.147a118.493 118.493 0 0 1 1.827-3.456c.476-.853.998-1.681 1.525-2.499.272-.421.435-.868.532-1.358.267-1.345.298-2.716.426-4.074.078-.814.243-1.618.364-2.429.089-.591.332-1.114.616-1.621.477-.845 1.198-1.249 2.117-1.277 1.474-.043 2.545.69 3.395 1.903.902 1.287 1.368 2.732 1.546 4.301.124 1.088-.114 2.115-.497 3.104-.697 1.793-1.343 3.6-1.579 5.537-.044.36-.059.718.037 1.088.137.529.305.764.819.833.467.064.94.096 1.41.101.47.005.94-.039 1.41-.062a.102.102 0 0 0 .003-.029Zm.162 2.079v.028c-.137.009-.274.02-.411.026-.925.03-1.849.088-2.773-.066-1.283-.215-2.01-1.072-2.335-2.281-.298-1.104-.174-2.231.05-3.32.367-1.785.982-3.493 1.644-5.181.208-.529.342-1.08.259-1.662-.057-.415-.097-.84-.204-1.242-.301-1.13-.812-2.118-1.751-2.828-.553-.418-1.669-.347-1.902.444-.071.241-.229.464-.265.707-.133.882-.244 1.77-.341 2.656-.131 1.212-.209 2.431-.37 3.637a5.134 5.134 0 0 1-.86 2.256c-.508.74-.984 1.507-1.423 2.293-.627 1.122-1.207 2.273-1.807 3.411-.161.305-.329.604-.476.913-.404.851-.791 1.711-1.202 2.559a4.26 4.26 0 0 1-.501.826c-.422.525-.837 1.051-1.359 1.489-.876.736-1.846 1.25-2.935 1.477a1.56 1.56 0 0 0-1.114.819c-.602 1.079-.887 2.257-.887 3.507-.001 1.423.441 2.735.974 4.013.535 1.283 1.317 2.406 2.134 3.504.182.246.402.282.652.209.27-.077.526-.204.798-.274 1.301-.338 2.475-.133 3.471.885.411.42.838.83 1.3 1.182.87.672 1.759 1.311 2.786 1.725.819.332 1.638.5 2.508.373.147-.021.287-.103.432-.157-.099-.115-.183-.251-.298-.344a3.154 3.154 0 0 1-1.06-1.521c-.256-.798-.247-1.587-.047-2.381.068-.272.339-.547.296-.775-.051-.271-.365-.475-.524-.735-.516-.84-.567-1.791-.476-2.74.043-.439.139-.902.463-1.265.232-.262.197-.577.104-.924-.449-1.662-.207-3.15 1.116-4.303a.599.599 0 0 0 .225-.563c-.127-1.049.295-1.915.9-2.651.808-.981 1.914-1.421 3.13-1.565.939-.111 1.867-.044 2.797.13.86.163 1.693.178 2.32-.666.233-.315.899-.277 1.17-.016.358.345.485 1.047.236 1.41-.715 1.031-1.718 1.443-2.895 1.426-.398-.006-.797-.082-1.191-.156a6.626 6.626 0 0 0-2.399-.025c-.748.131-1.435.438-1.949 1.071-.528.648-.392 1.24.371 1.513.413.147.833.275 1.26.363 1.124.231 2.254.435 3.382.645.222.042.449.076.675.085 1.634.067 3.019-.611 4.292-1.604a.894.894 0 0 0 .3-.489c.229-1.145.375-2.308.12-3.459-.137-.619-.475-1.167-1.019-1.527a4.531 4.531 0 0 0-2.22-.743c-1.057-.08-2.114-.085-3.171-.119Zm1.552 12.803.01-.05c.187-.009.376-.023.563-.026 1.043-.022 2.021-.348 2.985-.723.276-.107.57-.218.793-.408.773-.662 1.095-1.526.913-2.572-.112-.645-.11-.635-.655-.298-1.49.924-3.084 1.474-4.832 1.273-1.084-.125-2.161-.351-3.237-.558-.94-.183-1.877-.382-2.727-.888-.257-.154-.498 0-.705.196-.529.503-.616 1.133-.428 1.804.067.246.228.532.428.658.491.306 1.004.58 1.587.679.637.11 1.26.301 1.897.407 1.134.187 2.273.338 3.408.506Zm-.285 4.138c.625-.082 1.34-.125 2.031-.283 1.092-.248 1.724-1.04 2.037-2.133.028-.098.015-.208.021-.311-.113.007-.23 0-.339.027-.573.144-1.137.342-1.716.44-.927.154-1.858.236-2.798.028-.612-.137-1.237-.208-1.857-.291-1.295-.172-2.583-.372-3.803-.896a34.26 34.26 0 0 0-.526-.218c-.174-.07-.302-.033-.382.161-.2.49-.259.985-.053 1.488.04.096.098.209.177.255.349.201.694.426 1.067.562.908.329 1.848.529 2.799.667 1.085.159 2.166.326 3.342.504Zm-1.665 4.043c.258-.013.526.014.778-.047.663-.157 1.346-.295 1.748-.977.137-.234.294-.455.426-.694.135-.244.063-.352-.226-.343-.365.012-.737.09-1.095.048a75.402 75.402 0 0 1-3.508-.483c-.843-.137-1.677-.337-2.514-.518-.241-.053-.452-.019-.621.175-.391.444-.291 1.347.16 1.731.511.436 1.123.585 1.737.687 1.033.173 2.074.283 3.115.421ZM452.597 144.727c2.213.709 4.005 2.055 5.362 4.02.228.329.411.708.553 1.089.274.73.257 1.448-.205 2.115-.324.467-.672.922-.936 1.426-.651 1.236-1.713 1.345-2.845 1.136-1.746-.322-3.233-1.246-4.571-2.426-.847-.747-1.573-1.611-2.033-2.692-.34-.801-.447-1.566.11-2.325.335-.455.644-.938.917-1.439.597-1.097 1.529-1.348 2.624-1.188.346.048.682.187 1.024.284Zm1.658 8.435c.278.03.629.085.98.098.862.029 1.071-.297.723-1.12a3.127 3.127 0 0 0-.354-.642c-1.333-1.804-2.986-3.102-5.145-3.636-.514-.127-1.062-.333-1.403.167-.353.518.037 1.033.332 1.462 1.214 1.764 2.875 2.891 4.867 3.671Zm-2.299-7.361c-.262-.012-.769-.077-1.27-.037-.183.015-.346.278-.52.428.147.106.283.26.446.307 2.557.727 4.658 2.132 6.131 4.488.042.066.107.119.165.175.214.201.356.088.435-.136.205-.574-.04-1.096-.337-1.503-1.25-1.708-2.854-2.931-5.05-3.722Z" fill="#000"/><rect x="367.5" y="93.299" width="147" height="147" rx="73.5" stroke="#0FFD6A" shape-rendering="crispEdges"/></g><defs><clipPath id="a"><path fill="#fff" transform="translate(110.232 138.799)" d="M0 0h39.6v45.601H0z"/></clipPath><clipPath id="b"><path fill="#fff" transform="translate(77.356 202.199)" d="M0 0h26.4v30.4H0z"/></clipPath><clipPath id="c"><path fill="#fff" transform="translate(48.956 148.001)" d="M0 0h26.4v30.4H0z"/></clipPath><clipPath id="d"><path fill="#fff" transform="translate(77.356 96.6)" d="M0 0h26.4v30.4H0z"/></clipPath><filter id="e" x="262" y="131.799" width="115" height="75" filterUnits="userSpaceOnUse" color-interpolation-filters="sRGB"><feFlood flood-opacity="0" result="BackgroundImageFix"/><feColorMatrix in="SourceAlpha" values="0 0 0 0 0 0 0 0 0 0 0 0 0 0 0 0 0 0 127 0" result="hardAlpha"/><feOffset dy="4"/><feGaussianBlur stdDeviation="2"/><feComposite in2="hardAlpha" operator="out"/><feColorMatrix values="0 0 0 0 0 0 0 0 0 0 0 0 0 0 0 0 0 0 0.25 0"/><feBlend in2="BackgroundImageFix" result="effect1_dropShadow_9653_23588"/><feBlend in="SourceGraphic" in2="effect1_dropShadow_9653_23588" result="shape"/><feGaussianBlur stdDeviation="1.5" result="effect2_foregroundBlur_9653_23588"/></filter><filter id="g" x="359" y="84.799" width="164" height="164" filterUnits="userSpaceOnUse" color-interpolation-filters="sRGB"><feFlood flood-opacity="0" result="BackgroundImageFix"/><feColorMatrix in="SourceAlpha" values="0 0 0 0 0 0 0 0 0 0 0 0 0 0 0 0 0 0 127 0" result="hardAlpha"/><feOffset/><feGaussianBlur stdDeviation="4"/><feComposite in2="hardAlpha" operator="out"/><feColorMatrix values="0 0 0 0 0.0588235 0 0 0 0 0.992157 0 0 0 0 0.415686 0 0 0 1 0"/><feBlend in2="BackgroundImageFix" result="effect1_dropShadow_9653_23588"/><feBlend in="SourceGraphic" in2="effect1_dropShadow_9653_23588" result="shape"/></filter><linearGradient id="f" x1="378.5" y1="170.5" x2="302" y2="170.5" gradientUnits="userSpaceOnUse"><stop stop-color="#0FFD6A"/><stop offset="1" stop-color="#0FFD6A" stop-opacity="0"/></linearGradient></defs></svg>