<svg width="555" height="336" fill="none" xmlns="http://www.w3.org/2000/svg"><g clip-path="url(#a)"><path fill="#1E2229" d="M0 0h555v336H0z"/><path d="M0 192.498c21-26 43.566-53.618 68-46 32.954 10.274 40.393 46 97.174 46 83.993 0 86.634-90.999 167.585-90.999 28.935 0 40.702 26.428 80.376 31C487.082 141.021 473 65 555 80.999" stroke="#0FFD6A"/><path stroke="#fff" stroke-width=".646" d="M44.135 103.917V91"/><path fill="#1E2229" stroke="#fff" stroke-width=".646" d="M38.323 104.239h12.271v80.729H38.323z"/><path stroke="#fff" stroke-width=".646" d="M44.135 198.208v-12.917m393-85.375V87"/><path fill="#1E2229" stroke="#fff" stroke-width=".646" d="M431.323 100.239h12.271v63.937h-12.271z"/><path stroke="#fff" stroke-width=".646" d="M437.135 177.417V164.5m-110-70.584V81"/><path fill="#1E2229" stroke="#fff" stroke-width=".646" d="M321.323 94.239h12.271v12.271h-12.271z"/><path stroke="#fff" stroke-width=".646" d="M327.135 119.75v-12.917m203-34.374V66"/><path fill="#1E2229" stroke="#fff" stroke-width=".646" d="M524.323 72.781h12.271v12.271h-12.271z"/><path stroke="#fff" stroke-width=".646" d="M530.135 91.834v-6.459m-365 92.542V165"/><path fill="#1E2229" stroke="#fff" stroke-width=".646" d="M159.323 178.239h12.271v28.417h-12.271z"/><path stroke="#fff" stroke-width=".646" d="M165.135 219.896v-12.917"/><path opacity=".8" d="m346.872 185 15.499 13.499h-30.998L346.872 185Z" fill="url(#b)"/><path opacity=".8" d="m346.872 202.999 15.499 13.499h-30.998l15.499-13.499Z" fill="url(#c)"/><path opacity=".8" d="m346.872 220.998 15.499 13.499h-30.998l15.499-13.499Z" fill="url(#d)"/><g filter="url(#e)" stroke-width=".497"><path d="M305.585 241.117c0 1.044-.717 2.09-2.14 3.084-1.416.988-3.48 1.889-6.054 2.649-5.144 1.52-12.265 2.464-20.141 2.464-7.876 0-14.998-.944-20.142-2.464-2.573-.76-4.638-1.661-6.053-2.649-1.423-.994-2.14-2.04-2.14-3.084s.717-2.09 2.14-3.083c1.415-.989 3.48-1.89 6.053-2.65 5.144-1.52 12.266-2.464 20.142-2.464 7.876 0 14.997.944 20.141 2.464 2.574.76 4.638 1.661 6.054 2.65 1.423.993 2.14 2.039 2.14 3.083Z" stroke="url(#f)"/><path d="M248.914 248.263c0 1.044.717 2.09 2.14 3.084 1.416.988 3.48 1.889 6.054 2.649 5.144 1.52 12.265 2.464 20.141 2.464 7.877 0 14.998-.944 20.142-2.464 2.573-.76 4.638-1.661 6.053-2.649 1.423-.994 2.14-2.04 2.14-3.084s-.717-2.09-2.14-3.083c-1.415-.989-3.48-1.89-6.053-2.65-5.144-1.52-12.265-2.464-20.142-2.464-7.876 0-14.997.944-20.141 2.464-2.574.76-4.638 1.661-6.054 2.65-1.423.993-2.14 2.039-2.14 3.083Z" stroke="url(#g)"/><path d="M305.585 255.409c0 1.044-.717 2.09-2.14 3.084-1.416.988-3.48 1.889-6.054 2.649-5.144 1.52-12.265 2.464-20.141 2.464-7.876 0-14.998-.944-20.142-2.464-2.573-.76-4.638-1.661-6.053-2.649-1.423-.994-2.14-2.04-2.14-3.084s.717-2.09 2.14-3.083c1.415-.989 3.48-1.89 6.053-2.65 5.144-1.52 12.266-2.464 20.142-2.464 7.876 0 14.997.944 20.141 2.464 2.574.76 4.638 1.661 6.054 2.65 1.423.993 2.14 2.039 2.14 3.083Z" stroke="url(#h)"/><path d="M248.914 262.555c0 1.044.717 2.09 2.14 3.084 1.416.988 3.48 1.889 6.054 2.649 5.144 1.52 12.265 2.464 20.141 2.464 7.877 0 14.998-.944 20.142-2.464 2.573-.76 4.638-1.661 6.053-2.649 1.423-.994 2.14-2.04 2.14-3.084s-.717-2.09-2.14-3.083c-1.415-.989-3.48-1.89-6.053-2.65-5.144-1.52-12.265-2.464-20.142-2.464-7.876 0-14.997.944-20.141 2.464-2.574.76-4.638 1.661-6.054 2.65-1.423.993-2.14 2.039-2.14 3.083Z" stroke="url(#i)"/></g><mask id="j" fill="#fff"><path fill-rule="evenodd" clip-rule="evenodd" d="M314.558 206.884h-74.619v13.509c.001 6.394 16.705 11.578 37.31 11.578 20.604 0 37.308-5.184 37.309-11.578v-13.509Z"/></mask><path fill-rule="evenodd" clip-rule="evenodd" d="M314.558 206.884h-74.619v13.509c.001 6.394 16.705 11.578 37.31 11.578 20.604 0 37.308-5.184 37.309-11.578v-13.509Z" fill="#1E2229"/><path d="M239.939 206.884v-.643h-.643v.643h.643Zm74.619 0h.643v-.643h-.643v.643Zm-74.619 13.509h-.643.643Zm74.619 0h.643-.643Zm-74.619-12.865h74.619v-1.287h-74.619v1.287Zm.644 12.864v-13.508h-1.287v13.508h1.287Zm0 .001v-.001h-1.287v.001h1.287Zm36.666 10.935c-10.257 0-19.516-1.291-26.191-3.363-3.341-1.036-5.998-2.258-7.806-3.584-1.821-1.336-2.669-2.692-2.669-3.988h-1.287c0 1.9 1.24 3.591 3.195 5.025 1.969 1.444 4.775 2.718 8.186 3.776 6.829 2.119 16.223 3.42 26.572 3.42v-1.286Zm36.665-10.935c0 1.296-.848 2.652-2.669 3.988-1.808 1.326-4.465 2.548-7.806 3.584-6.674 2.072-15.934 3.363-26.19 3.363v1.286c10.348 0 19.743-1.301 26.571-3.42 3.411-1.058 6.218-2.332 8.186-3.776 1.955-1.434 3.195-3.125 3.195-5.025h-1.287Zm0-.001v.001h1.287v-.001h-1.287Zm0-13.508v13.508h1.287v-13.508h-1.287Z" fill="#fff" mask="url(#j)"/><path d="M314.237 206.242c0 1.83-.977 3.612-2.825 5.269-1.848 1.657-4.54 3.165-7.895 4.437-6.707 2.544-15.994 4.124-26.267 4.124-10.274 0-19.561-1.58-26.268-4.124-3.354-1.272-6.047-2.78-7.895-4.437-1.848-1.657-2.825-3.439-2.825-5.269s.977-3.611 2.825-5.269c1.848-1.657 4.541-3.165 7.895-4.437 6.707-2.544 15.994-4.124 26.268-4.124 10.273 0 19.56 1.58 26.267 4.124 3.355 1.272 6.047 2.78 7.895 4.437 1.848 1.658 2.825 3.439 2.825 5.269Z" fill="#1E2229" stroke="#fff" stroke-width=".643"/><path d="M308.447 205.921c0 1.326-.797 2.639-2.355 3.88-1.555 1.237-3.824 2.366-6.657 3.32-5.663 1.907-13.507 3.092-22.186 3.092-8.678 0-16.522-1.185-22.185-3.092-2.833-.954-5.102-2.083-6.657-3.32-1.558-1.241-2.356-2.554-2.356-3.88s.798-2.639 2.356-3.88c1.555-1.238 3.824-2.366 6.657-3.32 5.663-1.907 13.507-3.092 22.185-3.092 8.679 0 16.523 1.185 22.186 3.092 2.833.954 5.102 2.082 6.657 3.32 1.558 1.241 2.355 2.554 2.355 3.88Z" fill="#1E2229" stroke="#fff" stroke-width=".643"/><path stroke="#fff" stroke-width=".643" d="M244.12 212.031v13.508m66.258-13.508v13.508m-32.807-5.146v11.579m-19.297-14.152v12.222m39.881-12.222v12.222"/></g><defs><linearGradient id="b" x1="346.872" y1="185" x2="346.872" y2="201.499" gradientUnits="userSpaceOnUse"><stop stop-color="#0FFD6A"/><stop offset="1" stop-color="#00FF61" stop-opacity="0"/></linearGradient><linearGradient id="c" x1="346.872" y1="202.999" x2="346.872" y2="219.498" gradientUnits="userSpaceOnUse"><stop stop-color="#0FFD6A"/><stop offset="1" stop-color="#00FF61" stop-opacity="0"/></linearGradient><linearGradient id="d" x1="346.872" y1="220.998" x2="346.872" y2="237.497" gradientUnits="userSpaceOnUse"><stop stop-color="#0FFD6A"/><stop offset="1" stop-color="#00FF61" stop-opacity="0"/></linearGradient><linearGradient id="f" x1="267.471" y1="223.73" x2="279.069" y2="251.379" gradientUnits="userSpaceOnUse"><stop stop-color="#fff"/><stop offset=".966" stop-color="#fff" stop-opacity="0"/></linearGradient><linearGradient id="g" x1="287.028" y1="230.876" x2="275.43" y2="258.525" gradientUnits="userSpaceOnUse"><stop stop-color="#fff"/><stop offset=".966" stop-color="#fff" stop-opacity="0"/></linearGradient><linearGradient id="h" x1="267.471" y1="238.022" x2="279.069" y2="265.671" gradientUnits="userSpaceOnUse"><stop stop-color="#fff"/><stop offset=".966" stop-color="#fff" stop-opacity="0"/></linearGradient><linearGradient id="i" x1="287.028" y1="245.168" x2="275.43" y2="272.817" gradientUnits="userSpaceOnUse"><stop stop-color="#fff"/><stop offset=".966" stop-color="#fff" stop-opacity="0"/></linearGradient><clipPath id="a"><path fill="#fff" d="M0 0h555v336H0z"/></clipPath><filter id="e" x="247.367" y="231.373" width="59.766" height="40.927" filterUnits="userSpaceOnUse" color-interpolation-filters="sRGB"><feFlood flood-opacity="0" result="BackgroundImageFix"/><feBlend in="SourceGraphic" in2="BackgroundImageFix" result="shape"/><feGaussianBlur stdDeviation=".65" result="effect1_foregroundBlur_9653_23720"/></filter></defs></svg>