<svg width="24" height="24" viewBox="0 0 24 24" fill="none" xmlns="http://www.w3.org/2000/svg">
    <g>
        <path fill-rule="evenodd" clip-rule="evenodd" d="M21.5999 12C21.5999 9.65733 21.4067 7.49781 21.1778 5.76445C20.9717 4.20448 19.7954 3.02816 18.2355 2.82213C16.5021 2.59321 14.3426 2.40001 12 2.40001C9.65729 2.40001 7.49778 2.59321 5.76443 2.82213C4.20446 3.02816 3.02815 4.20448 2.82212 5.76445C2.5932 7.49779 2.4 9.65733 2.4 12C2.4 14.3427 2.5932 16.5023 2.82212 18.2355C3.02815 19.7956 4.20446 20.9719 5.76443 21.178C7.49777 21.4067 9.65729 21.6001 12 21.6001C14.3426 21.6001 16.5021 21.4067 18.2355 21.178C19.7954 20.9719 20.9717 19.7956 21.1778 18.2355C21.4067 16.5023 21.5999 14.3427 21.5999 12ZM23.5572 5.45022C23.2089 2.81407 21.1859 0.790956 18.5498 0.4428C16.7374 0.203454 14.4704 0 12 0C9.52951 0 7.26249 0.203454 5.4502 0.4428C2.81406 0.790956 0.790953 2.81407 0.442798 5.45022C0.203453 7.2625 0 9.52954 0 12C0 14.4705 0.203453 16.7375 0.442798 18.5498C0.790953 21.1859 2.81406 23.2091 5.4502 23.5572C7.26247 23.7966 9.52951 24 12 24C14.4704 24 16.7374 23.7966 18.5498 23.5572C21.1859 23.2091 23.2089 21.1859 23.5572 18.5498C23.7964 16.7375 24 14.4705 24 12C24 9.52954 23.7964 7.26252 23.5572 5.45022Z" fill="#8A9098"/>
        <path fill-rule="evenodd" clip-rule="evenodd" d="M17.0461 9.35147C16.5775 8.88284 15.8178 8.88284 15.3491 9.35147L11.9976 12.7029L8.64618 9.35147C8.17755 8.88284 7.41776 8.88284 6.94913 9.35147C6.4805 9.82008 6.4805 10.5799 6.94913 11.0485L11.1491 15.2485C11.6177 15.7172 12.3775 15.7172 12.8462 15.2485L17.0461 11.0485C17.5148 10.5799 17.5148 9.82008 17.0461 9.35147Z" fill="#8A9098"/>
    </g>
</svg>
