<svg xmlns="http://www.w3.org/2000/svg" width="41" height="40" viewBox="0 0 41 40" fill="none">
    <g clip-path="url(#clip0_9668_23499)">
        <path d="M36.5074 1.42676H5.07882C3.50087 1.42676 2.22168 2.70594 2.22168 4.2839V31.4268C2.22168 33.0047 3.50087 34.2839 5.07882 34.2839H36.5074C38.0854 34.2839 39.3645 33.0047 39.3645 31.4268V4.2839C39.3645 2.70594 38.0854 1.42676 36.5074 1.42676Z" stroke="#8A9098" stroke-width="2.85714" stroke-linecap="round" stroke-linejoin="round"/>
        <path d="M25.0791 22.8555C27.8405 22.8555 30.0791 20.6169 30.0791 17.8555C30.0791 15.094 27.8405 12.8555 25.0791 12.8555C22.3177 12.8555 20.0791 15.094 20.0791 17.8555C20.0791 20.6169 22.3177 22.8555 25.0791 22.8555Z" stroke="#8A9098" stroke-width="2.85714" stroke-linecap="round" stroke-linejoin="round"/>
        <path d="M25.0792 9.28418V12.8556M25.0792 22.8556V26.427M33.6507 17.8556H30.0792M20.0792 17.8556H16.5078M31.1364 11.7985L28.6221 14.3128M21.5364 21.3985L19.0221 23.9128M31.1364 23.9128L28.6221 21.3985M21.5364 14.3128L19.0221 11.7985M9.36496 12.8556V22.8556M6.50781 34.2842V38.5699M33.6507 34.2842V38.5699" stroke="#8A9098" stroke-width="2.85714" stroke-linecap="round" stroke-linejoin="round"/>
    </g>
    <defs>
        <clipPath id="clip0_9668_23499">
            <rect width="40" height="40" fill="white" transform="translate(0.792969)"/>
        </clipPath>
    </defs>
</svg>