<svg xmlns="http://www.w3.org/2000/svg" width="41" height="40" viewBox="0 0 41 40" fill="none">
    <path fill-rule="evenodd" clip-rule="evenodd" d="M20.457 36C29.2936 36 36.457 28.8365 36.457 20C36.457 11.1635 29.2936 4.00002 20.457 4.00002C11.6204 4.00002 4.45702 11.1635 4.45702 20C4.45702 28.8365 11.6204 36 20.457 36ZM20.457 40C31.5027 40 40.457 31.0457 40.457 20C40.457 8.95431 31.5027 0 20.457 0C9.41136 0 0.457031 8.95431 0.457031 20C0.457031 31.0457 9.41136 40 20.457 40Z" fill="#8A9098"/>
    <path d="M18.457 10C18.457 8.89543 19.3525 8 20.457 8C21.5616 8 22.457 8.89543 22.457 10C25.7707 10 28.457 12.6863 28.457 16C28.457 17.1046 27.5616 18 26.457 18C25.3525 18 24.457 17.1046 24.457 16C24.457 14.8954 23.5616 14 22.457 14H17.9439C17.1227 14 16.457 14.6657 16.457 15.4869C16.457 16.1268 16.8666 16.695 17.4737 16.8974L24.7053 19.3079C26.9458 20.0547 28.457 22.1515 28.457 24.5131C28.457 27.5435 26.0005 30 22.9702 30H22.457C22.457 31.1046 21.5616 32 20.457 32C19.3525 32 18.457 31.1046 18.457 30C15.1433 30 12.457 27.3137 12.457 24C12.457 22.8954 13.3525 22 14.457 22C15.5616 22 16.457 22.8954 16.457 24C16.457 25.1046 17.3525 26 18.457 26H22.9702C23.7914 26 24.457 25.3343 24.457 24.5131C24.457 23.8732 24.0475 23.305 23.4404 23.1026L16.2088 20.6921C13.9683 19.9453 12.457 17.8485 12.457 15.4869C12.457 12.4565 14.9136 10 17.9439 10H18.457Z" fill="#8A9098"/>
</svg>