<svg xmlns="http://www.w3.org/2000/svg" width="41" height="40" viewBox="0 0 41 40" fill="none">
    <path fill-rule="evenodd" clip-rule="evenodd" d="M18.3897 2C18.3897 0.895429 19.285 0 20.3896 0C31.4354 0 40.3896 8.95429 40.3896 20C40.3896 31.0457 31.4354 40 20.3896 40C9.34396 40 0.389648 31.0457 0.389648 20C0.389648 18.8954 1.28508 18 2.38965 18C3.49422 18 4.38965 18.8954 4.38965 20C4.38965 28.8365 11.5531 36 20.3896 36C29.2262 36 36.3897 28.8365 36.3897 20C36.3897 11.1634 29.2262 3.99997 20.3896 3.99997C19.285 3.99997 18.3897 3.10457 18.3897 2Z" fill="#8A9098"/>
    <path fill-rule="evenodd" clip-rule="evenodd" d="M18.3896 12C18.3896 10.8955 19.285 10 20.3896 10C25.9125 10 30.3896 14.4771 30.3896 20C30.3896 25.5228 25.9125 30 20.3896 30C19.285 30 18.3896 29.1046 18.3896 28C18.3896 26.8954 19.285 26 20.3896 26C23.7033 26 26.3896 23.3137 26.3896 20C26.3896 16.6863 23.7033 14 20.3896 14C19.285 14 18.3896 13.1045 18.3896 12Z" fill="#8A9098"/>
</svg>